# https://github.com/mikedh/trimesh
v -0.03789463266730309 0.01686208322644234 -0.01386920921504498
v -0.03789463266730309 0.01687671244144440 -0.01379255764186382
v -0.03789463266730309 0.01689321361482143 -0.01786908879876137
v -0.03789463266730309 0.01691956073045731 -0.01372733712196350
v -0.03789463266730309 0.01698410511016846 -0.01368347834795713
v -0.03789463266730309 0.01698813028633595 -0.01832758262753487
v -0.03789463266730309 0.01706052199006081 -0.01366765890270472
v -0.03789463266730309 0.01725127920508385 -0.01871485449373722
v -0.03789463266730309 0.01764260046184063 -0.01897194422781467
v -0.03789463266730309 0.01810251548886299 -0.01905971206724644
v -0.03789463266730309 0.02010245621204376 -0.01904414780437946
v -0.03789463266730309 0.02056095190346241 -0.01894923113286495
v -0.03789463266730309 0.02094822376966476 -0.01868608221411705
v -0.03789463266730309 0.02106039971113205 -0.01363652851432562
v -0.03789463266730309 0.02113705314695835 -0.01365115679800510
v -0.03789463266730309 0.02120227366685867 -0.01369400508701801
v -0.03789463266730309 0.02120531350374222 -0.01829476095736027
v -0.03789463266730309 0.02124613150954247 -0.01375855039805174
v -0.03789463266730309 0.02126195095479488 -0.01383496634662151
v -0.03789463266730309 0.02129308134317398 -0.01783484593033791
v -0.03759463131427765 0.01656209304928780 -0.01387154404073954
v -0.03759463131427765 0.01659322343766689 -0.01787142455577850
v -0.03759463131427765 0.01659866236150265 -0.01367991231381893
v -0.03759463131427765 0.01670578308403492 -0.01351686194539070
v -0.03759463131427765 0.01671186648309231 -0.01844454184174538
v -0.03759463131427765 0.01686714589595795 -0.01340721640735865
v -0.03759463131427765 0.01704080402851105 -0.01892863214015961
v -0.03759463131427765 0.01705818623304367 -0.01336766779422760
v -0.03759463131427765 0.01752995513379574 -0.01924999244511127
v -0.03759463131427765 0.01810485124588013 -0.01935970224440098
v -0.03759463131427765 0.02010479010641575 -0.01934413798153400
v -0.03759463131427765 0.02067791111767292 -0.01922549493610859
v -0.03759463131427765 0.02105806395411491 -0.01333653740584850
v -0.03759463131427765 0.02116199955344200 -0.01889655739068985
v -0.03759463131427765 0.02124969847500324 -0.01337310764938593
v -0.03759463131427765 0.02130857855081558 -0.01340157724916935
v -0.03759463131427765 0.02141274698078632 -0.01348022837191820
v -0.03759463131427765 0.02148336172103882 -0.01840740628540516
v -0.03759463131427765 0.02149301022291183 -0.01358316000550985
v -0.03759463131427765 0.02152239345014095 -0.01364159211516380
v -0.03759463131427765 0.02156194113194942 -0.01383263152092695
v -0.03759463131427765 0.02159307152032852 -0.01783251017332077
v -0.03649463132023811 0.00793004594743252 0.00306178908795118
v -0.03649463132023811 0.00808180682361126 -0.01643762178719044
v -0.03649463132023811 0.00824419967830181 -0.01760107651352882
v -0.03649463132023811 0.00870218407362700 -0.01868286170065403
v -0.03649463132023811 0.00942455045878887 -0.01960924640297890
v -0.03649463132023811 0.01036206819117069 -0.02031710557639599
v -0.03649463132023811 0.01145084761083126 -0.02075819671154022
v -0.03649463132023811 0.01243945769965649 -0.01740373671054840
v -0.03649463132023811 0.01259728148579597 -0.01668657734990120
v -0.03649463132023811 0.01260842476040125 -0.01811834983527660
v -0.03649463132023811 0.01261669117957354 -0.02090246230363846
v -0.03649463132023811 0.01292989589273930 0.00310070184059441
v -0.03649463132023811 0.01302072964608669 -0.00857051741331816
v -0.03649463132023811 0.01305064093321562 -0.01610891707241535
v -0.03649463132023811 0.01307071931660175 -0.01868888363242149
v -0.03649463132023811 0.01321847178041935 -0.00952571630477905
v -0.03649463132023811 0.01370974071323872 -0.01578517071902752
v -0.03649463132023811 0.01373477745801210 -0.01900233514606953
v -0.03649463132023811 0.01376669853925705 -0.01033253222703934
v -0.03649463132023811 0.01444403640925884 -0.01577945426106453
v -0.03649463132023811 0.01446907501667738 -0.01899661868810654
v -0.03649463132023811 0.01510809455066919 -0.01609290577471256
v -0.03649463132023811 0.01512817293405533 -0.01867287047207355
v -0.03649463132023811 0.01557038910686970 -0.01666343770921230
v -0.03649463132023811 0.01558153238147497 -0.01809521205723286
v -0.03649463132023811 0.01573935709893703 -0.01737805455923080
v -0.03649463132023811 0.01656209304928780 -0.01387154404073954
v -0.03649463132023811 0.01659322343766689 -0.01787142455577850
v -0.03649463132023811 0.01659866236150265 -0.01367991231381893
v -0.03649463132023811 0.01661705225706100 -0.01313886139541864
v -0.03649463132023811 0.01670578308403492 -0.01351686194539070
v -0.03649463132023811 0.01671186648309231 -0.01844454184174538
v -0.03649463132023811 0.01686714589595795 -0.01340721640735865
v -0.03649463132023811 0.01691513136029243 -0.01338973361998796
v -0.03649463132023811 0.01704080402851105 -0.01892863214015961
v -0.03649463132023811 0.01752995513379574 -0.01924999244511127
v -0.03649463132023811 0.01810485124588013 -0.01935970224440098
v -0.03649463132023811 0.02010479010641575 -0.01934413798153400
v -0.03649463132023811 0.02067791111767292 -0.01922549493610859
v -0.03649463132023811 0.02116199955344200 -0.01889655739068985
v -0.03649463132023811 0.02148336172103882 -0.01840740628540516
v -0.03649463132023811 0.02156194113194942 -0.01383263152092695
v -0.03649463132023811 0.02159307152032852 -0.01783251017332077
v -0.03649463132023811 0.02243915386497974 -0.01732591167092323
v -0.03649463132023811 0.02259697951376438 -0.01660875231027603
v -0.03649463132023811 0.02260812185704708 -0.01804052479565144
v -0.03649463132023811 0.02305033802986145 -0.01603109203279018
v -0.03649463132023811 0.02307041734457016 -0.01861105859279633
v -0.03649463132023811 0.02370943687856197 -0.01570734381675720
v -0.03649463132023811 0.02373447455465794 -0.01892450824379921
v -0.03649463132023811 0.02444373257458210 -0.01570162922143936
v -0.03649463132023811 0.02446877211332321 -0.01891879364848137
v -0.03649463132023811 0.02510779164731503 -0.01601508073508739
v -0.03649463132023811 0.02512787096202374 -0.01859504543244839
v -0.03649463132023811 0.02557008713483810 -0.01658561266958714
v -0.03649463132023811 0.02558122947812080 -0.01801738701760769
v -0.03649463132023811 0.02573905512690544 -0.01730022765696049
v -0.03649463132023811 0.02606180496513844 -0.01379761006683111
v -0.03649463132023811 0.02611628361046314 -0.02079739794135094
v -0.03649463132023811 0.02663670107722282 -0.01390731986612082
v -0.03649463132023811 0.02668940275907516 -0.02067875489592552
v -0.03649463132023811 0.02712585218250751 -0.01422868203371763
v -0.03649463132023811 0.02717349119484425 -0.02034981735050678
v -0.03649463132023811 0.02745478786528111 -0.01471277140080929
v -0.03649463132023811 0.02749485336244106 -0.01986066624522209
v -0.03649463132023811 0.02757343277335167 -0.01528589054942131
v -0.03649463132023811 0.02760456316173077 -0.01928577013313770
v -0.03644208610057831 0.01698387414216995 -0.01337380614131689
v -0.03644208610057831 0.01698387973010540 -0.01337380241602659
v -0.03639561310410500 0.01705818623304367 -0.01336766779422760
v -0.03634239360690117 0.00792409107089043 0.00382713251747191
v -0.03634239360690117 0.01292393915355206 0.00386604573577642
v -0.03624463081359863 0.02149301022291183 -0.01358316000550985
v -0.03614505007863045 0.01759652420878410 -0.01336347870528698
v -0.03606161847710609 0.02130857855081558 -0.01340157724916935
v -0.03602353483438492 0.01804649271070957 -0.01335997693240643
v -0.03601166978478432 0.02118760347366333 -0.01335256733000278
v -0.03599463403224945 0.00743006123229861 0.00305789778940380
v -0.03599463403224945 0.00758182071149349 -0.01644151099026203
v -0.03599463403224945 0.00776225794106722 -0.01773424074053764
v -0.03599463403224945 0.00827113166451454 -0.01893622241914272
v -0.03599463403224945 0.00907375942915678 -0.01996554061770439
v -0.03599463403224945 0.01011544559150934 -0.02075204998254776
v -0.03599463403224945 0.01132520101964474 -0.02124215289950371
v -0.03599463403224945 0.01262058224529028 -0.02140244655311108
v -0.03599463403224945 0.01342988014221191 0.00310459313914180
v -0.03599463403224945 0.01352071389555931 -0.00856662634760141
v -0.03599463403224945 0.01367890834808350 -0.00933078490197659
v -0.03599463403224945 0.01411748863756657 -0.00997623801231384
v -0.03599463030695915 0.01696784421801567 -0.01278256718069315
v -0.03599463030695915 0.01736440695822239 -0.01308561395853758
v -0.03599463030695915 0.01762004569172859 -0.01321105007082224
v -0.03599463030695915 0.01790005899965763 -0.01330115087330341
v -0.03599463030695915 0.01838657259941101 -0.01335733011364937
v -0.03599463030695915 0.02105806395411491 -0.01333653740584850
v -0.03599463030695915 0.02605791389942169 -0.01329762488603592
v -0.03599463030695915 0.02612017467617989 -0.02129738405346870
v -0.03599463030695915 0.02682444266974926 -0.01344390492886305
v -0.03599463030695915 0.02688433229923248 -0.02113919146358967
v -0.03599463030695915 0.02747664414346218 -0.01387238781899214
v -0.03599463030695915 0.02752978540956974 -0.02070060744881630
v -0.03599463030695915 0.02791522629559040 -0.01451784092932940
v -0.03599463030695915 0.02795826829969883 -0.02004840597510338
v -0.03599463030695915 0.02807341888546944 -0.01528199948370457
v -0.03599463030695915 0.02810454927384853 -0.01928187720477581
v -0.03590884804725647 0.00791904050856829 0.00447595957666636
v -0.03590884804725647 0.01291888859122992 0.00451487256214023
v -0.03588045388460159 0.00742559460923076 0.00363190541975200
v -0.03588045388460159 0.00742559460923076 0.00363190565258265
v -0.03588045388460159 0.01342541351914406 0.00367860100232065
v -0.03555529192090034 0.00742180692031980 0.00411852588877082
v -0.03555529192090034 0.01342162489891052 0.00416522100567818
v -0.03525999933481216 0.00791566539555788 0.00490949209779501
v -0.03525999933481216 0.01291551534086466 0.00494840508326888
v -0.03506865724921227 0.00741927651688457 0.00444367527961731
v -0.03506865724921227 0.01341909542679787 0.00449037039652467
v -0.03449463471770287 0.00741838756948709 0.00455785216763616
v -0.03449463471770287 0.00791448075324297 0.00506172841414809
v -0.03449463471770287 0.01291433069854975 0.00510064139962196
v -0.03449463471770287 0.01341820601373911 0.00460454728454351
v -0.03369463235139847 0.01243945676833391 -0.01740373671054840
v -0.03369463235139847 0.01259728148579597 -0.01668657734990120
v -0.03369463235139847 0.01260842476040125 -0.01811834983527660
v -0.03369463235139847 0.01305064000189304 -0.01610891707241535
v -0.03369463235139847 0.01307071931660175 -0.01868888363242149
v -0.03369463235139847 0.01370973978191614 -0.01578517071902752
v -0.03369463235139847 0.01373477745801210 -0.01900233514606953
v -0.03369463235139847 0.01444403547793627 -0.01577945426106453
v -0.03369463235139847 0.01446907501667738 -0.01899661868810654
v -0.03369463235139847 0.01510809455066919 -0.01609290577471256
v -0.03369463235139847 0.01512817293405533 -0.01867287047207355
v -0.03369463235139847 0.01557038910686970 -0.01666343770921230
v -0.03369463235139847 0.01558153238147497 -0.01809521205723286
v -0.03369463235139847 0.01573935709893703 -0.01737805455923080
v -0.03369463235139847 0.02243915386497974 -0.01732591167092323
v -0.03369463235139847 0.02259697765111923 -0.01660875231027603
v -0.03369463235139847 0.02260812185704708 -0.01804052479565144
v -0.03369463235139847 0.02305033802986145 -0.01603109203279018
v -0.03369463235139847 0.02307041734457016 -0.01861105859279633
v -0.03369463235139847 0.02370943687856197 -0.01570734381675720
v -0.03369463235139847 0.02373447455465794 -0.01892450824379921
v -0.03369463235139847 0.02444373257458210 -0.01570162922143936
v -0.03369463235139847 0.02446877211332321 -0.01891879364848137
v -0.03369463235139847 0.02510779164731503 -0.01601508073508739
v -0.03369463235139847 0.02512787096202374 -0.01859504543244839
v -0.03369463235139847 0.02557008527219296 -0.01658561266958714
v -0.03369463235139847 0.02558122947812080 -0.01801738701760769
v -0.03369463235139847 0.02573905512690544 -0.01730022765696049
v -0.03251963481307030 0.00745340948924422 0.00005798852362204
v -0.03237625584006310 0.00745923258364201 -0.00069039763184264
v -0.03236548975110054 0.00744737824425101 0.00083289894973859
v -0.03214463219046593 0.00782839674502611 0.00006090696842875
v -0.03214463219046593 0.01345322839915752 0.00010468393156771
v -0.03202780708670616 0.00783314369618893 -0.00054888910381123
v -0.03201903402805328 0.00782348401844501 0.00069231551606208
v -0.03198123350739479 0.00782282650470734 0.00077679345849901
v -0.03198123350739479 0.00783396977931261 -0.00065497949253768
v -0.03198123350739479 0.01344765536487103 0.00082057039253414
v -0.03198123350739479 0.01345879863947630 -0.00061120255850255
v -0.03193995729088783 0.00746444659307599 -0.00136030116118491
v -0.03192652389407158 0.00744226528331637 0.00148983637336642
v -0.03167230263352394 0.00783739145845175 -0.00109473650809377
v -0.03166135773062706 0.00781931634992361 0.00122759782243520
v -0.03152339160442352 0.00781835708767176 0.00135088979732245
v -0.03152339160442352 0.00783843733370304 -0.00122907583136111
v -0.03152339160442352 0.01344318781048059 0.00139466673135757
v -0.03152339160442352 0.01346326619386673 -0.00118529901374131
v -0.03127837553620338 0.00746794091537595 -0.00180913845542818
v -0.03126956894993782 0.00743884872645140 0.00192878779489547
v -0.03113323822617531 0.00784023758023977 -0.00146045582368970
v -0.03112606145441532 0.00781653355807066 0.00158526212908328
v -0.03099463321268559 0.00750788627192378 -0.00694179954007268
v -0.03099463321268559 0.00758182024583220 -0.01644151099026203
v -0.03099463321268559 0.00776225700974464 -0.01773424074053764
v -0.03099463135004044 0.00827113073319197 -0.01893622241914272
v -0.03099463135004044 0.00907375849783421 -0.01996554061770439
v -0.03099463135004044 0.01011544559150934 -0.02075204998254776
v -0.03099463135004044 0.01132520008832216 -0.02124215289950371
v -0.03099463135004044 0.01262058224529028 -0.02140244655311108
v -0.03099463135004044 0.01350770518183708 -0.00689510442316532
v -0.03099463135004044 0.01352071296423674 -0.00856662634760141
v -0.03099463135004044 0.01367890741676092 -0.00933078490197659
v -0.03099463135004044 0.01411748863756657 -0.00997623801231384
v -0.03099463135004044 0.01696784235537052 -0.01278256718069315
v -0.03099463135004044 0.01762004382908344 -0.01321105007082224
v -0.03099463135004044 0.01838657259941101 -0.01335733011364937
v -0.03099462948739529 0.02605791389942169 -0.01329762488603592
v -0.03099462948739529 0.02612017281353474 -0.02129738405346870
v -0.03099462948739529 0.02682880684733391 -0.01344568002969027
v -0.03099462948739529 0.02688433229923248 -0.02113919146358967
v -0.03099462948739529 0.02748334221541882 -0.01387901604175568
v -0.03099462948739529 0.02752978540956974 -0.02070060744881630
v -0.03099462948739529 0.02792068943381310 -0.01453087851405144
v -0.03099462948739529 0.02795826829969883 -0.02004840597510338
v -0.03099462948739529 0.02807341702282429 -0.01528199948370457
v -0.03099462948739529 0.02810454741120338 -0.01928187720477581
v -0.03086179308593273 0.00781587883830070 0.00166948931291699
v -0.03086179308593273 0.00784091558307409 -0.00154767546337098
v -0.03086179122328758 0.01344070769846439 0.00171326624695212
v -0.03086179122328758 0.01346574630588293 -0.00150389841292053
v -0.03080433234572411 0.00750044127926230 -0.00598511984571815
v -0.03080433048307896 0.01350026018917561 -0.00593842472881079
v -0.03049463406205177 0.00743764871731400 0.00208292738534510
v -0.03049463406205177 0.00746916793286800 -0.00196695001795888
v -0.03049463406205177 0.00781555660068989 0.00171085703186691
v -0.03049463406205177 0.00784123875200748 -0.00158904294949025
v -0.03049463406205177 0.00800787005573511 -0.00693790847435594
v -0.03049463406205177 0.00808180589228868 -0.01643762178719044
v -0.03049463219940662 0.00824419874697924 -0.01760107651352882
v -0.03049463219940662 0.00870218407362700 -0.01868286170065403
v -0.03049463219940662 0.00942454952746630 -0.01960924640297890
v -0.03049463219940662 0.01036206819117069 -0.02031710557639599
v -0.03049463219940662 0.01145084667950869 -0.02075819671154022
v -0.03049463219940662 0.01261669024825096 -0.02090246230363846
v -0.03049463219940662 0.01300772000104189 -0.00689899548888206
v -0.03049463219940662 0.01302072871476412 -0.00857051741331816
v -0.03049463219940662 0.01321847084909678 -0.00952571630477905
v -0.03049463219940662 0.01376669760793447 -0.01033253222703934
v -0.03049463219940662 0.01661705225706100 -0.01313886139541864
v -0.03049463219940662 0.01743230409920216 -0.01367446500808001
v -0.03049463219940662 0.01839046366512775 -0.01385731436312199
v -0.03049463033676147 0.02606180310249329 -0.01379761006683111
v -0.03049463033676147 0.02611628174781799 -0.02079739794135094
v -0.03049463033676147 0.02663997560739517 -0.01390865072607994
v -0.03049463033676147 0.02668940089643002 -0.02067875489592552
v -0.03049463033676147 0.02713087759912014 -0.01423365343362093
v -0.03049463033676147 0.02717349119484425 -0.02034981735050678
v -0.03049463033676147 0.02745888754725456 -0.01472255028784275
v -0.03049463033676147 0.02749485336244106 -0.01986066624522209
v -0.03049463033676147 0.02757343277335167 -0.01528589054942131
v -0.03049463033676147 0.02760456316173077 -0.01928577013313770
v -0.03034239262342453 0.00800191611051559 -0.00617256481200457
v -0.03034239076077938 0.01300176419317722 -0.00613365136086941
v -0.03026240132749081 0.00749412924051285 -0.00517408596351743
v -0.03026239946484566 0.01349394768476486 -0.00512739084661007
v -0.03012747503817081 0.00781587790697813 0.00166948931291699
v -0.03012747503817081 0.00784091558307409 -0.00154767546337098
v -0.03012747317552567 0.01344070676714182 0.00171326624695212
v -0.03012747317552567 0.01346574630588293 -0.00150389841292053
v -0.02990884706377983 0.00799686554819345 -0.00552373751997948
v -0.02990884520113468 0.01299671363085508 -0.00548482453450561
v -0.02986320666968822 0.00781653355807066 0.00158526212908328
v -0.02985602989792824 0.00784023758023977 -0.00146045582368970
v -0.02971970103681087 0.00743884826079011 0.00192878779489547
v -0.02971089258790016 0.00746794044971466 -0.00180913845542818
v -0.02946587651968002 0.00781835615634918 0.00135088979732245
v -0.02946587651968002 0.00783843733370304 -0.00122907583136111
v -0.02946587465703487 0.01344318687915802 0.00139466673135757
v -0.02946587465703487 0.01346326619386673 -0.00118529901374131
v -0.02945134229958057 0.00748991081491113 -0.00463217031210661
v -0.02945134043693542 0.01348972879350185 -0.00458547519519925
v -0.02932790853083134 0.00781931634992361 0.00122759770601988
v -0.02931696362793446 0.00783739052712917 -0.00109473650809377
v -0.02926000021398067 0.00799349043518305 -0.00509020499885082
v -0.02925999835133553 0.01299334038048983 -0.00505129201337695
v -0.02906274236738682 0.00744226481765509 0.00148983637336642
v -0.02904931083321571 0.00746444659307599 -0.00136030116118491
v -0.02900803461670876 0.00782282650470734 0.00077679345849901
v -0.02900803461670876 0.00783396884799004 -0.00065497949253768
v -0.02900803275406361 0.01344765536487103 0.00082057039253414
v -0.02900803275406361 0.01345879770815372 -0.00061120255850255
v -0.02897023223340511 0.00782348401844501 0.00069231551606208
v -0.02896145917475224 0.00783314276486635 -0.00054888916201890
v -0.02884463407099247 0.00782839674502611 0.00006090696479077
v -0.02884463220834732 0.01345322746783495 0.00010468393156771
v -0.02862377837300301 0.00744737777858973 0.00083289889153093
v -0.02861301042139530 0.00745923211798072 -0.00069039763184264
v -0.02849463373422623 0.00748842908069491 -0.00444187503308058
v -0.02849463373422623 0.00799230486154556 -0.00493796868249774
v -0.02849463187158108 0.01299215480685234 -0.00489905569702387
v -0.02849463187158108 0.01348824799060822 -0.00439517991617322
v -0.02846963331103325 0.00745340902358294 0.00005798851998406
v -0.02251963317394257 0.00745340809226036 0.00005798851634609
v -0.02237625792622566 0.00745923118665814 -0.00069039763184264
v -0.02236549183726311 0.00744737731292844 0.00083289889153093
v -0.02214463427662849 0.00782839581370354 0.00006090696115280
v -0.02214463241398335 0.01345322653651237 0.00010468392429175
v -0.02202780917286873 0.00783314183354378 -0.00054888916201890
v -0.02201903611421585 0.00782348308712244 0.00069231551606208
v -0.02198123186826706 0.00782282557338476 0.00077679345849901
v -0.02198123186826706 0.00783396791666746 -0.00065497949253768
v -0.02198123000562191 0.01344765443354845 0.00082057039253414
v -0.02198123000562191 0.01345879677683115 -0.00061120255850255
v -0.02193995565176010 0.00746444566175342 -0.00136030116118491
v -0.02192652598023415 0.00744226435199380 0.00148983637336642
v -0.02167230471968651 0.00783738959580660 -0.00109473650809377
v -0.02166135981678963 0.00781931541860104 0.00122759770601988
v -0.02152339369058609 0.00781835522502661 0.00135088979732245
v -0.02152339369058609 0.00783843640238047 -0.00122907594777644
v -0.02152339182794094 0.01344318594783545 0.00139466673135757
v -0.02152339182794094 0.01346326526254416 -0.00118529901374131
v -0.02127837389707565 0.00746793951839209 -0.00180913845542818
v -0.02126956731081009 0.00743884732946754 0.00192878779489547
v -0.02113323658704758 0.00784023664891720 -0.00146045582368970
v -0.02112606167793274 0.00781653262674809 0.00158526212908328
v -0.02086179330945015 0.00781587697565556 0.00166948931291699
v -0.02086179330945015 0.00784091465175152 -0.00154767546337098
v -0.02086179144680500 0.01344070583581924 0.00171326624695212
v -0.02086179144680500 0.01346574537456036 -0.00150389841292053
v -0.02049463242292404 0.00743764732033014 0.00208292738534510
v -0.02049463242292404 0.00746916653588414 -0.00196695025078952
v -0.02049463242292404 0.00781555566936731 0.00171085703186691
v -0.02049463242292404 0.00784123782068491 -0.00158904306590557
v -0.02012747526168823 0.00781587697565556 0.00166948931291699
v -0.02012747526168823 0.00784091465175152 -0.00154767546337098
v -0.02012747339904308 0.01344070583581924 0.00171326624695212
v -0.02012747339904308 0.01346574537456036 -0.00150389841292053
v -0.01986320689320564 0.00781653262674809 0.00158526212908328
v -0.01985602825880051 0.00784023664891720 -0.00146045582368970
v -0.01971970126032829 0.00743884732946754 0.00192878779489547
v -0.01971089094877243 0.00746793951839209 -0.00180913845542818
v -0.01946587488055229 0.00781835522502661 0.00135088979732245
v -0.01946587488055229 0.00783843640238047 -0.00122907594777644
v -0.01946587301790714 0.01344318594783545 0.00139466673135757
v -0.01946587301790714 0.01346326526254416 -0.00118529901374131
v -0.01932790875434875 0.00781931541860104 0.00122759770601988
v -0.01931696385145187 0.00783738959580660 -0.00109473650809377
v -0.01906274259090424 0.00744226388633251 0.00148983637336642
v -0.01904931291937828 0.00746444519609213 -0.00136030116118491
v -0.01900803670287132 0.00782282464206219 0.00077679345849901
v -0.01900803670287132 0.00783396791666746 -0.00065497949253768
v -0.01900803484022617 0.01344765350222588 0.00082057039253414
v -0.01900803484022617 0.01345879677683115 -0.00061120255850255
v -0.01897023245692253 0.00782348215579987 0.00069231551606208
v -0.01896145939826965 0.00783314183354378 -0.00054888916201890
v -0.01884463429450989 0.00782839581370354 0.00006090695751482
v -0.01884463243186474 0.01345322653651237 0.00010468392429175
v -0.01862377673387527 0.00744737684726715 0.00083289889153093
v -0.01861301064491272 0.00745923072099686 -0.00069039763184264
v -0.01846963539719582 0.00745340762659907 0.00005798851270811
v -0.01749463379383087 0.00741838570684195 0.00455785216763616
v -0.01749463379383087 0.00748842768371105 -0.00444187503308058
v -0.01749463379383087 0.00791447795927525 0.00506172841414809
v -0.01749463379383087 0.00799230393022299 -0.00493796868249774
v -0.01749463193118572 0.01291432790458202 0.00510064139962196
v -0.01749463193118572 0.01299215387552977 -0.00489905569702387
v -0.01749463193118572 0.01341820415109396 0.00460454728454351
v -0.01749463193118572 0.01348824612796307 -0.00439517991617322
v -0.01692060753703117 0.00741927418857813 0.00444367527961731
v -0.01692060567438602 0.01341909263283014 0.00449037039652467
v -0.01692060567438602 0.01348735764622688 -0.00428100302815437
v -0.01692060567438602 0.01348735764622688 -0.00428100256249309
v -0.01691734418272972 0.00748752895742655 -0.00432634167373180
v -0.01672926545143127 0.00791566353291273 0.00490949209779501
v -0.01672926358878613 0.01291551347821951 0.00494840508326888
v -0.01672926358878613 0.01299096830189228 -0.00474681938067079
v -0.01672491431236267 0.00799110531806946 -0.00478392420336604
v -0.01643397286534309 0.00742180412635207 0.00411852588877082
v -0.01643397100269794 0.01342162303626537 0.00416522100567818
v -0.01643397100269794 0.01348482724279165 -0.00395585363730788
v -0.01643397100269794 0.01348482724279165 -0.00395585317164660
v -0.01642898842692375 0.00748497014865279 -0.00399753870442510
v -0.01610881462693214 0.00742559228092432 0.00363190541975200
v -0.01610881276428699 0.01342541072517633 0.00367860100232065
v -0.01610881276428699 0.01348103955388069 -0.00346923316828907
v -0.01610479131340981 0.00748114613816142 -0.00350611843168736
v -0.01608042046427727 0.00791903864592314 0.00447595957666636
v -0.01608041860163212 0.01291888672858477 0.00451487256214023
v -0.01608041860163212 0.01298759318888187 -0.00431328732520342
v -0.01607377082109451 0.00798769295215607 -0.00434552039951086
v -0.01599463447928429 0.00743005890399218 0.00305789778940380
v -0.01599463447928429 0.00747675402089953 -0.00294192065484822
v -0.01599463261663914 0.01342987734824419 0.00310459313914180
v -0.01599463261663914 0.01347657293081284 -0.00289522530511022
v -0.01564687490463257 0.00792408827692270 0.00382713251747191
v -0.01564687304198742 0.01292393635958433 0.00386604573577642
v -0.01564687304198742 0.01298254542052746 -0.00366446003317833
v -0.01564151048660278 0.00798259396106005 -0.00369029352441430
v -0.01549463253468275 0.00793004315346479 0.00306178885512054
v -0.01549463253468275 0.00797673873603344 -0.00293802935630083
v -0.01549463160336018 0.01292989309877157 0.00310070184059441
v -0.01549463160336018 0.01297658868134022 -0.00289911637082696
f 45 44 3
f 402 409 410
f 265 402 256
f 414 410 409
f 149 158 154
f 142 154 158
f 142 149 154
f 255 256 402
f 218 219 402
f 401 409 402
f 401 402 265
f 401 267 409
f 401 265 267
f 127 139 221
f 394 215 216
f 236 147 238
f 230 221 139
f 230 267 265
f 230 265 256
f 230 256 221
f 406 414 238
f 101 103 139
f 101 11 103
f 101 139 127
f 48 8 9
f 122 45 46
f 114 104 16
f 114 142 104
f 114 149 142
f 156 161 158
f 156 158 149
f 162 379 233
f 162 233 142
f 162 142 158
f 162 161 379
f 162 158 161
f 159 375 160
f 155 159 160
f 155 156 149
f 377 379 161
f 412 410 414
f 220 221 256
f 220 256 255
f 220 402 219
f 220 255 402
f 220 126 127
f 220 127 221
f 217 218 402
f 217 402 394
f 217 394 216
f 271 414 409
f 105 143 103
f 105 103 13
f 145 147 236
f 141 139 103
f 141 103 143
f 12 103 11
f 12 13 103
f 6 8 46
f 6 45 3
f 6 46 45
f 47 46 8
f 47 8 48
f 121 216 215
f 121 122 216
f 121 44 45
f 121 45 122
f 54 114 16
f 148 149 114
f 148 155 149
f 106 19 18
f 106 18 16
f 106 16 104
f 108 146 147
f 108 147 109
f 108 19 106
f 144 142 233
f 144 104 142
f 144 106 104
f 144 146 108
f 144 108 106
f 157 159 155
f 157 155 148
f 387 379 377
f 405 396 413
f 405 237 396
f 405 413 414
f 405 414 406
f 405 238 237
f 405 406 238
f 408 413 396
f 408 411 413
f 408 400 399
f 382 379 387
f 404 412 411
f 53 127 126
f 53 101 127
f 53 10 11
f 53 11 101
f 390 159 120
f 390 120 316
f 269 409 267
f 269 271 409
f 273 271 236
f 273 236 238
f 273 238 414
f 273 414 271
f 107 13 17
f 107 105 13
f 107 17 20
f 107 20 109
f 107 109 147
f 107 147 145
f 232 267 230
f 232 230 139
f 232 139 141
f 232 234 269
f 232 269 267
f 124 46 47
f 124 47 48
f 192 316 120
f 192 120 121
f 192 121 316
f 43 14 7
f 43 54 14
f 43 1 3
f 43 3 44
f 43 44 121
f 43 121 120
f 43 114 54
f 235 237 146
f 235 146 144
f 235 144 233
f 235 396 237
f 235 233 379
f 235 379 382
f 150 151 120
f 153 120 159
f 153 159 157
f 153 150 120
f 153 151 150
f 153 148 151
f 153 157 148
f 386 390 399
f 386 399 400
f 386 400 387
f 407 411 408
f 407 408 399
f 407 399 390
f 391 387 400
f 391 382 387
f 391 400 408
f 391 408 396
f 391 396 235
f 391 235 382
f 398 404 394
f 398 402 410
f 398 394 402
f 398 410 412
f 398 412 404
f 385 215 394
f 385 394 404
f 374 121 215
f 374 215 385
f 374 385 404
f 374 404 390
f 49 126 48
f 49 53 126
f 49 48 9
f 49 9 10
f 49 10 53
f 373 375 159
f 373 159 390
f 403 404 411
f 403 390 404
f 123 122 46
f 123 46 124
f 123 216 122
f 123 217 216
f 125 48 126
f 125 124 48
f 125 220 219
f 125 126 220
f 125 218 124
f 125 219 218
f 15 54 16
f 15 14 54
f 113 148 114
f 113 114 43
f 113 151 148
f 113 120 151
f 113 43 120
f 371 390 316
f 371 374 390
f 371 316 121
f 371 121 374
f 381 390 386
f 381 373 390
f 381 386 375
f 381 375 373
f 395 407 390
f 395 390 403
f 395 411 407
f 395 403 411
f 2 1 43
f 2 43 4
f 5 43 7
f 5 4 43
f 146 237 238
f 146 238 147
f 155 161 156
f 155 160 161
f 377 161 160
f 377 160 375
f 412 413 411
f 412 414 413
f 145 234 143
f 145 236 234
f 108 20 19
f 108 109 20
f 269 234 236
f 269 236 271
f 107 145 143
f 107 143 105
f 232 143 234
f 232 141 143
f 386 377 375
f 386 387 377
f 123 124 218
f 123 218 217
f 5 9 8
f 5 3 1
f 5 17 13
f 5 20 17
f 5 15 16
f 5 6 3
f 5 19 20
f 5 16 18
f 5 18 19
f 5 10 9
f 5 12 11
f 5 11 10
f 5 13 12
f 5 8 6
f 5 7 14
f 5 14 15
f 5 1 2
f 5 2 4

