# https://github.com/mikedh/trimesh
v -0.03789463639259338 -0.02129307202994823 0.01783484593033791
v -0.03789463639259338 -0.02126194164156914 0.01383496634662151
v -0.03789463639259338 -0.02124612219631672 0.01375855039805174
v -0.03789463639259338 -0.02120530419051647 0.01829476095736027
v -0.03789463639259338 -0.02120226249098778 0.01369400508701801
v -0.03789463639259338 -0.02113704383373260 0.01365115679800510
v -0.03789463639259338 -0.02106039039790630 0.01363652944564819
v -0.03789463639259338 -0.02094821445643902 0.01868608221411705
v -0.03789463639259338 -0.02056094259023666 0.01894923113286495
v -0.03789463639259338 -0.02010244689881802 0.01904414780437946
v -0.03789463639259338 -0.01810250617563725 0.01905971206724644
v -0.03789463639259338 -0.01764259114861488 0.01897194422781467
v -0.03789463639259338 -0.01725126989185810 0.01871485449373722
v -0.03789463639259338 -0.01706051267683506 0.01366765890270472
v -0.03789463639259338 -0.01698812097311020 0.01832758262753487
v -0.03789463639259338 -0.01698409579694271 0.01368347927927971
v -0.03789463639259338 -0.01691954955458641 0.01372733712196350
v -0.03789463639259338 -0.01689320430159569 0.01786908879876137
v -0.03789463639259338 -0.01687670312821865 0.01379255764186382
v -0.03789463639259338 -0.01686207391321659 0.01386920921504498
v -0.03759463503956795 -0.02159306220710278 0.01783251017332077
v -0.03759463503956795 -0.02156193181872368 0.01383263152092695
v -0.03759463503956795 -0.02152238413691521 0.01364159211516380
v -0.03759463503956795 -0.02149300090968609 0.01358316000550985
v -0.03759463503956795 -0.02148335240781307 0.01840740628540516
v -0.03759463503956795 -0.02141273766756058 0.01348022837191820
v -0.03759463503956795 -0.02130856923758984 0.01340157724916935
v -0.03759463503956795 -0.02124968729913235 0.01337310858070850
v -0.03759463503956795 -0.02116199024021626 0.01889655739068985
v -0.03759463503956795 -0.02105805464088917 0.01333653833717108
v -0.03759463503956795 -0.02067790180444717 0.01922549493610859
v -0.03759463503956795 -0.02010478079319000 0.01934413798153400
v -0.03759463503956795 -0.01810484193265438 0.01935970224440098
v -0.03759463503956795 -0.01752994582056999 0.01924999244511127
v -0.03759463503956795 -0.01705817691981792 0.01336766779422760
v -0.03759463503956795 -0.01704079471528530 0.01892863214015961
v -0.03759463503956795 -0.01686713658273220 0.01340721640735865
v -0.03759463503956795 -0.01671185716986656 0.01844454184174538
v -0.03759463503956795 -0.01670577377080917 0.01351686194539070
v -0.03759463503956795 -0.01659865304827690 0.01367991231381893
v -0.03759463503956795 -0.01659321412444115 0.01787142455577850
v -0.03759463503956795 -0.01656208373606205 0.01387154404073954
v -0.03649463504552841 -0.02760455384850502 0.01928577013313770
v -0.03649463504552841 -0.02757342346012592 0.01528589054942131
v -0.03649463504552841 -0.02749484404921532 0.01986066624522209
v -0.03649463504552841 -0.02745478041470051 0.01471277140080929
v -0.03649463504552841 -0.02717348374426365 0.02034981735050678
v -0.03649463504552841 -0.02712584286928177 0.01422868203371763
v -0.03649463504552841 -0.02668939344584942 0.02067875489592552
v -0.03649463504552841 -0.02663669176399708 0.01390731986612082
v -0.03649463504552841 -0.02611627429723740 0.02079739794135094
v -0.03649463504552841 -0.02606179565191269 0.01379761006683111
v -0.03649463504552841 -0.02573904581367970 0.01730022765696049
v -0.03649463504552841 -0.02558122016489506 0.01801738701760769
v -0.03649463504552841 -0.02557007782161236 0.01658561266958714
v -0.03649463504552841 -0.02512786164879799 0.01859504543244839
v -0.03649463504552841 -0.02510778233408928 0.01601508073508739
v -0.03649463504552841 -0.02446876280009747 0.01891879364848137
v -0.03649463504552841 -0.02444372512400150 0.01570162922143936
v -0.03649463504552841 -0.02373446524143219 0.01892450824379921
v -0.03649463504552841 -0.02370942756533623 0.01570734381675720
v -0.03649463504552841 -0.02307040803134441 0.01861105859279633
v -0.03649463504552841 -0.02305032871663570 0.01603109203279018
v -0.03649463504552841 -0.02260811440646648 0.01804052479565144
v -0.03649463504552841 -0.02259697020053864 0.01660875231027603
v -0.03649463504552841 -0.02243914455175400 0.01732591167092323
v -0.03649463504552841 -0.02159306220710278 0.01783251017332077
v -0.03649463504552841 -0.02156193181872368 0.01383263152092695
v -0.03649463504552841 -0.02148335240781307 0.01840740628540516
v -0.03649463504552841 -0.02116199024021626 0.01889655739068985
v -0.03649463504552841 -0.02067790180444717 0.01922549493610859
v -0.03649463504552841 -0.02010478079319000 0.01934413798153400
v -0.03649463504552841 -0.01810484193265438 0.01935970224440098
v -0.03649463504552841 -0.01752994582056999 0.01924999244511127
v -0.03649463504552841 -0.01704079471528530 0.01892863214015961
v -0.03649463504552841 -0.01691512204706669 0.01338973361998796
v -0.03649463504552841 -0.01686713658273220 0.01340721640735865
v -0.03649463504552841 -0.01671185716986656 0.01844454184174538
v -0.03649463504552841 -0.01670577377080917 0.01351686194539070
v -0.03649463504552841 -0.01661704294383526 0.01313886139541864
v -0.03649463504552841 -0.01659865304827690 0.01367991231381893
v -0.03649463504552841 -0.01659321412444115 0.01787142455577850
v -0.03649463504552841 -0.01656208373606205 0.01387154404073954
v -0.03649463504552841 -0.01573934778571129 0.01737805455923080
v -0.03649463504552841 -0.01558152306824923 0.01809521205723286
v -0.03649463504552841 -0.01557038072496653 0.01666343770921230
v -0.03649463504552841 -0.01512816455215216 0.01867287047207355
v -0.03649463504552841 -0.01510808523744345 0.01609290577471256
v -0.03649463504552841 -0.01446906663477421 0.01899661868810654
v -0.03649463504552841 -0.01444402709603310 0.01577945426106453
v -0.03649463504552841 -0.01376668922603130 0.01033253222703934
v -0.03649463504552841 -0.01373476907610893 0.01900233514606953
v -0.03649463504552841 -0.01370973140001297 0.01578517071902752
v -0.03649463504552841 -0.01321846246719360 0.00952571630477905
v -0.03649463504552841 -0.01307071093469858 0.01868888363242149
v -0.03649463504552841 -0.01305063161998987 0.01610891707241535
v -0.03649463504552841 -0.01302072033286095 0.00857051741331816
v -0.03649463504552841 -0.01292988657951355 -0.00310070160776377
v -0.03649463504552841 -0.01261668186634779 0.02090246230363846
v -0.03649463504552841 -0.01260841544717550 0.01811834983527660
v -0.03649463504552841 -0.01259727310389280 0.01668657734990120
v -0.03649463504552841 -0.01243944838643074 0.01740373671054840
v -0.03649463504552841 -0.01145083829760551 0.02075819671154022
v -0.03649463504552841 -0.01036205980926752 0.02031710557639599
v -0.03649463504552841 -0.00942454114556313 0.01960924640297890
v -0.03649463504552841 -0.00870217569172382 0.01868286170065403
v -0.03649463504552841 -0.00824419036507607 0.01760107651352882
v -0.03649463504552841 -0.00808179751038551 0.01643762178719044
v -0.03649463504552841 -0.00793003663420677 -0.00306178885512054
v -0.03644209355115891 -0.01698387041687965 0.01337380241602659
v -0.03644209355115891 -0.01698386482894421 0.01337380614131689
v -0.03639562055468559 -0.01705817691981792 0.01336766779422760
v -0.03634239360690117 -0.01292392984032631 -0.00386604550294578
v -0.03634239360690117 -0.00792408175766468 -0.00382713228464127
v -0.03624463826417923 -0.02149300090968609 0.01358316000550985
v -0.03614505380392075 -0.01759651489555836 0.01336347870528698
v -0.03606162592768669 -0.02130856923758984 0.01340157724916935
v -0.03602353855967522 -0.01804648339748383 0.01335997693240643
v -0.03601167351007462 -0.02118759416043758 0.01335256733000278
v -0.03599463775753975 -0.02810453996062279 0.01928187720477581
v -0.03599463775753975 -0.02807340957224369 0.01528199948370457
v -0.03599463775753975 -0.02795825898647308 0.02004840597510338
v -0.03599463775753975 -0.02791521698236465 0.01451784092932940
v -0.03599463775753975 -0.02752977609634399 0.02070060744881630
v -0.03599463775753975 -0.02747663483023643 0.01387238781899214
v -0.03599463775753975 -0.02688432484865189 0.02113919146358967
v -0.03599463775753975 -0.02682443335652351 0.01344390492886305
v -0.03599463775753975 -0.02612016536295414 0.02129738405346870
v -0.03599463775753975 -0.02605790458619595 0.01329762488603592
v -0.03599463775753975 -0.02105805650353432 0.01333653833717108
v -0.03599463775753975 -0.01838656328618526 0.01335733011364937
v -0.03599463775753975 -0.01790004968643188 0.01330115180462599
v -0.03599463775753975 -0.01762003637850285 0.01321105007082224
v -0.03599463775753975 -0.01736439764499664 0.01308561395853758
v -0.03599463775753975 -0.01696783490478992 0.01278256718069315
v -0.03599463403224945 -0.01411748025566339 0.00997623801231384
v -0.03599463403224945 -0.01367889903485775 0.00933078490197659
v -0.03599463403224945 -0.01352070458233356 0.00856662634760141
v -0.03599463403224945 -0.01342987082898617 -0.00310459290631115
v -0.03599463403224945 -0.01262057386338711 0.02140244655311108
v -0.03599463403224945 -0.01132519170641899 0.02124215289950371
v -0.03599463403224945 -0.01011543720960617 0.02075204998254776
v -0.03599463403224945 -0.00907375011593103 0.01996554061770439
v -0.03599463403224945 -0.00827112235128880 0.01893622241914272
v -0.03599463403224945 -0.00776224862784147 0.01773424074053764
v -0.03599463403224945 -0.00758181186392903 0.01644151099026203
v -0.03599463403224945 -0.00743005238473415 -0.00305789755657315
v -0.03590884804725647 -0.01291888020932674 -0.00451487256214023
v -0.03590884804725647 -0.00791903212666512 -0.00447595957666636
v -0.03588045388460159 -0.01342540420591831 -0.00367860076949000
v -0.03588045388460159 -0.00742558576166630 -0.00363190541975200
v -0.03588045388460159 -0.00742558576166630 -0.00363190518692136
v -0.03555529564619064 -0.01342161651700735 -0.00416522100567818
v -0.03555529564619064 -0.00742179760709405 -0.00411852588877082
v -0.03526000306010246 -0.01291550695896149 -0.00494840508326888
v -0.03526000306010246 -0.00791565701365471 -0.00490949209779501
v -0.03506866097450256 -0.01341908611357212 -0.00449037039652467
v -0.03506866097450256 -0.00741926813498139 -0.00444367527961731
v -0.03449463471770287 -0.01341819763183594 -0.00460454728454351
v -0.03449463471770287 -0.01291432138532400 -0.00510064139962196
v -0.03449463471770287 -0.00791447144001722 -0.00506172841414809
v -0.03449463471770287 -0.00741837918758392 -0.00455785216763616
v -0.03369463607668877 -0.02573904581367970 0.01730022765696049
v -0.03369463607668877 -0.02558122016489506 0.01801738701760769
v -0.03369463607668877 -0.02557007782161236 0.01658561266958714
v -0.03369463607668877 -0.02512786164879799 0.01859504543244839
v -0.03369463607668877 -0.02510778233408928 0.01601508073508739
v -0.03369463607668877 -0.02446876466274261 0.01891879364848137
v -0.03369463607668877 -0.02444372512400150 0.01570162922143936
v -0.03369463607668877 -0.02373446710407734 0.01892450824379921
v -0.03369463607668877 -0.02370942756533623 0.01570734381675720
v -0.03369463607668877 -0.02307040803134441 0.01861105859279633
v -0.03369463607668877 -0.02305032871663570 0.01603109203279018
v -0.03369463607668877 -0.02260811440646648 0.01804052479565144
v -0.03369463607668877 -0.02259697020053864 0.01660875231027603
v -0.03369463607668877 -0.02243914641439915 0.01732591167092323
v -0.03369463607668877 -0.01573934778571129 0.01737805455923080
v -0.03369463607668877 -0.01558152399957180 0.01809521205723286
v -0.03369463607668877 -0.01557038072496653 0.01666343770921230
v -0.03369463607668877 -0.01512816455215216 0.01867287047207355
v -0.03369463607668877 -0.01510808523744345 0.01609290577471256
v -0.03369463607668877 -0.01446906663477421 0.01899661868810654
v -0.03369463607668877 -0.01444402709603310 0.01577945426106453
v -0.03369463607668877 -0.01373476907610893 0.01900233514606953
v -0.03369463607668877 -0.01370973140001297 0.01578517071902752
v -0.03369463607668877 -0.01307071093469858 0.01868888363242149
v -0.03369463607668877 -0.01305063161998987 0.01610891707241535
v -0.03369463607668877 -0.01260841544717550 0.01811834983527660
v -0.03369463607668877 -0.01259727310389280 0.01668657734990120
v -0.03369463607668877 -0.01243944838643074 0.01740373671054840
v -0.03251963481307030 -0.00745340157300234 -0.00005798846177640
v -0.03237625956535339 -0.00745922466740012 0.00069039769005030
v -0.03236548975110054 -0.00744737032800913 -0.00083289883332327
v -0.03214463591575623 -0.01345322001725435 -0.00010468387336005
v -0.03214463591575623 -0.00782838929444551 -0.00006090691022109
v -0.03202781081199646 -0.00783313531428576 0.00054888922022656
v -0.03201903775334358 -0.00782347656786442 -0.00069231545785442
v -0.03198123350739479 -0.01345879025757313 0.00061120261671022
v -0.03198123350739479 -0.01344764791429043 -0.00082057033432648
v -0.03198123350739479 -0.00783396139740944 0.00065497955074534
v -0.03198123350739479 -0.00782281905412674 -0.00077679340029135
v -0.03193995729088783 -0.00746443867683411 0.00136030116118491
v -0.03192652761936188 -0.00744225736707449 -0.00148983637336642
v -0.03167230635881424 -0.00783738307654858 0.00109473650809377
v -0.03166136145591736 -0.00781930889934301 -0.00122759770601988
v -0.03152339160442352 -0.01346325874328613 0.00118529901374131
v -0.03152339160442352 -0.01344317942857742 -0.00139466673135757
v -0.03152339160442352 -0.00783842988312244 0.00122907594777644
v -0.03152339160442352 -0.00781834870576859 -0.00135088979732245
v -0.03127837553620338 -0.00746793299913406 0.00180913845542818
v -0.03126956894993782 -0.00743884081020951 -0.00192878779489547
v -0.03113324008882046 -0.00784023012965918 0.00146045582368970
v -0.03112606331706047 -0.00781652610749006 -0.00158526201266795
v -0.03099463693797588 -0.02810453996062279 0.01928187720477581
v -0.03099463693797588 -0.02807340957224369 0.01528199948370457
v -0.03099463693797588 -0.02795826084911823 0.02004840597510338
v -0.03099463693797588 -0.02792068198323250 0.01453087851405144
v -0.03099463693797588 -0.02752977795898914 0.02070060744881630
v -0.03099463693797588 -0.02748333476483822 0.01387901604175568
v -0.03099463693797588 -0.02688432484865189 0.02113919146358967
v -0.03099463693797588 -0.02682879939675331 0.01344568002969027
v -0.03099463693797588 -0.02612016536295414 0.02129738405346870
v -0.03099463693797588 -0.02605790458619595 0.01329762488603592
v -0.03099463507533073 -0.01838656328618526 0.01335733011364937
v -0.03099463507533073 -0.01762003637850285 0.01321105007082224
v -0.03099463507533073 -0.01696783490478992 0.01278256718069315
v -0.03099463507533073 -0.01411748025566339 0.00997623801231384
v -0.03099463507533073 -0.01367889996618032 0.00933078490197659
v -0.03099463507533073 -0.01352070551365614 0.00856662634760141
v -0.03099463507533073 -0.01350769679993391 0.00689510442316532
v -0.03099463507533073 -0.01262057386338711 0.02140244655311108
v -0.03099463507533073 -0.01132519263774157 0.02124215289950371
v -0.03099463507533073 -0.01011543720960617 0.02075204998254776
v -0.03099463507533073 -0.00907375104725361 0.01996554061770439
v -0.03099463507533073 -0.00827112328261137 0.01893622241914272
v -0.03099463507533073 -0.00776224955916405 0.01773424074053764
v -0.03099463507533073 -0.00758181232959032 0.01644151099026203
v -0.03099463507533073 -0.00750787835568190 0.00694179954007268
v -0.03086179494857788 -0.01346573885530233 0.00150389841292053
v -0.03086179494857788 -0.01344069931656122 -0.00171326624695212
v -0.03086179494857788 -0.00784090813249350 0.00154767546337098
v -0.03086179494857788 -0.00781587045639753 -0.00166948919650167
v -0.03080433420836926 -0.01350025180727243 0.00593842472881079
v -0.03080433420836926 -0.00750043382868171 0.00598511984571815
v -0.03049463778734207 -0.02760455571115017 0.01928577013313770
v -0.03049463778734207 -0.02757342532277107 0.01528589054942131
v -0.03049463778734207 -0.02749484591186047 0.01986066624522209
v -0.03049463778734207 -0.02745888009667397 0.01472255028784275
v -0.03049463778734207 -0.02717348374426365 0.02034981735050678
v -0.03049463778734207 -0.02713087014853954 0.01423365343362093
v -0.03049463778734207 -0.02668939344584942 0.02067875489592552
v -0.03049463778734207 -0.02663996815681458 0.01390865072607994
v -0.03049463778734207 -0.02611627429723740 0.02079739794135094
v -0.03049463778734207 -0.02606179565191269 0.01379761006683111
v -0.03049463592469692 -0.01839045621454716 0.01385731436312199
v -0.03049463592469692 -0.01743229478597641 0.01367446500808001
v -0.03049463592469692 -0.01661704480648041 0.01313886139541864
v -0.03049463592469692 -0.01376669015735388 0.01033253222703934
v -0.03049463592469692 -0.01321846339851618 0.00952571630477905
v -0.03049463592469692 -0.01302072126418352 0.00857051741331816
v -0.03049463592469692 -0.01300771255046129 0.00689899548888206
v -0.03049463592469692 -0.01261668279767036 0.02090246230363846
v -0.03049463592469692 -0.01145083922892809 0.02075819671154022
v -0.03049463592469692 -0.01036205980926752 0.02031710557639599
v -0.03049463592469692 -0.00942454207688570 0.01960924640297890
v -0.03049463592469692 -0.00870217569172382 0.01868286170065403
v -0.03049463592469692 -0.00824419129639864 0.01760107651352882
v -0.03049463592469692 -0.00808179844170809 0.01643762178719044
v -0.03049463592469692 -0.00800786260515451 0.00693790847435594
v -0.03049463592469692 -0.00784123130142689 0.00158904306590557
v -0.03049463592469692 -0.00781554915010929 -0.00171085691545159
v -0.03049463592469692 -0.00746916048228741 0.00196695025078952
v -0.03049463592469692 -0.00743764126673341 -0.00208292715251446
v -0.03034239448606968 -0.01300175581127405 0.00613365136086941
v -0.03034239448606968 -0.00800190772861242 0.00617256481200457
v -0.03026240319013596 -0.01349394023418427 0.00512739084661007
v -0.03026240319013596 -0.00749412178993225 0.00517408596351743
v -0.03012747690081596 -0.01346573885530233 0.00150389841292053
v -0.03012747690081596 -0.01344069931656122 -0.00171326624695212
v -0.03012747690081596 -0.00784090813249350 0.00154767546337098
v -0.03012747690081596 -0.00781587045639753 -0.00166948919650167
v -0.02990884892642498 -0.01299670618027449 0.00548482453450561
v -0.02990884892642498 -0.00799685809761286 0.00552373751997948
v -0.02986320853233337 -0.00781652610749006 -0.00158526201266795
v -0.02985603176057339 -0.00784023012965918 0.00146045582368970
v -0.02971970289945602 -0.00743884081020951 -0.00192878779489547
v -0.02971089445054531 -0.00746793346479535 0.00180913845542818
v -0.02946587838232517 -0.01346325874328613 0.00118529901374131
v -0.02946587838232517 -0.01344318035990000 -0.00139466673135757
v -0.02946587838232517 -0.00783842988312244 0.00122907594777644
v -0.02946587838232517 -0.00781834870576859 -0.00135088979732245
v -0.02945134416222572 -0.01348972134292126 0.00458547519519925
v -0.02945134416222572 -0.00748990336433053 0.00463217031210661
v -0.02932791039347649 -0.00781930889934301 -0.00122759770601988
v -0.02931696549057961 -0.00783738400787115 0.00109473650809377
v -0.02926000207662582 -0.01299333292990923 0.00505129201337695
v -0.02926000207662582 -0.00799348298460245 0.00509020499885082
v -0.02906274423003197 -0.00744225783273578 -0.00148983637336642
v -0.02904931269586086 -0.00746443914249539 0.00136030116118491
v -0.02900803647935390 -0.01345879118889570 0.00061120261671022
v -0.02900803647935390 -0.01344764791429043 -0.00082057033432648
v -0.02900803647935390 -0.00783396232873201 0.00065497955074534
v -0.02900803647935390 -0.00782281905412674 -0.00077679340029135
v -0.02897023409605026 -0.00782347656786442 -0.00069231545785442
v -0.02896146103739738 -0.00783313531428576 0.00054888916201890
v -0.02884463593363762 -0.01345322001725435 -0.00010468387336005
v -0.02884463593363762 -0.00782838929444551 -0.00006090691022109
v -0.02862378023564816 -0.00744737079367042 -0.00083289889153093
v -0.02861301228404045 -0.00745922513306141 0.00069039769005030
v -0.02849463559687138 -0.01348824054002762 0.00439517991617322
v -0.02849463559687138 -0.01299214828759432 0.00489905569702387
v -0.02849463559687138 -0.00799229834228754 0.00493796868249774
v -0.02849463559687138 -0.00748842209577560 0.00444187503308058
v -0.02846963517367840 -0.00745340203866363 -0.00005798846905236
v -0.02251963503658772 -0.00745340250432491 -0.00005798847269034
v -0.02237625978887081 -0.00745922559872270 0.00069039769005030
v -0.02236549369990826 -0.00744737172499299 -0.00083289889153093
v -0.02214463613927364 -0.01345322094857693 -0.00010468388063600
v -0.02214463613927364 -0.00782839022576809 -0.00006090691749705
v -0.02202781103551388 -0.00783313624560833 0.00054888916201890
v -0.02201903797686100 -0.00782347749918699 -0.00069231545785442
v -0.02198123373091221 -0.01345879212021828 0.00061120261671022
v -0.02198123373091221 -0.01344764884561300 -0.00082057033432648
v -0.02198123373091221 -0.00783396326005459 0.00065497955074534
v -0.02198123373091221 -0.00782281998544931 -0.00077679340029135
v -0.02193995751440525 -0.00746444007381797 0.00136030116118491
v -0.02192652784287930 -0.00744225876405835 -0.00148983637336642
v -0.02167230658233166 -0.00783738493919373 0.00109473650809377
v -0.02166136167943478 -0.00781930983066559 -0.00122759770601988
v -0.02152339555323124 -0.01346325967460871 0.00118529901374131
v -0.02152339555323124 -0.01344318129122257 -0.00139466673135757
v -0.02152339555323124 -0.00783843081444502 0.00122907594777644
v -0.02152339555323124 -0.00781835056841373 -0.00135088979732245
v -0.02127837575972080 -0.00746793439611793 0.00180913845542818
v -0.02126956917345524 -0.00743884220719337 -0.00192878779489547
v -0.02113323844969273 -0.00784023106098175 0.00146045582368970
v -0.02112606354057789 -0.00781652703881264 -0.00158526201266795
v -0.02086179517209530 -0.01346573978662491 0.00150389841292053
v -0.02086179517209530 -0.01344070117920637 -0.00171326624695212
v -0.02086179517209530 -0.00784090906381607 0.00154767546337098
v -0.02086179517209530 -0.00781587231904268 -0.00166948919650167
v -0.02049463428556919 -0.00784123316407204 0.00158904306590557
v -0.02049463428556919 -0.00781555008143187 -0.00171085691545159
v -0.02049463428556919 -0.00746916141360998 0.00196695025078952
v -0.02049463428556919 -0.00743764219805598 -0.00208292715251446
v -0.02012747712433338 -0.01346573978662491 0.00150389841292053
v -0.02012747712433338 -0.01344070117920637 -0.00171326624695212
v -0.02012747712433338 -0.00784090906381607 0.00154767546337098
v -0.02012747712433338 -0.00781587231904268 -0.00166948919650167
v -0.01986320875585079 -0.00781652703881264 -0.00158526201266795
v -0.01985603012144566 -0.00784023199230433 0.00146045582368970
v -0.01971970312297344 -0.00743884220719337 -0.00192878779489547
v -0.01971089281141758 -0.00746793439611793 0.00180913845542818
v -0.01946587674319744 -0.01346325967460871 0.00118529901374131
v -0.01946587674319744 -0.01344318129122257 -0.00139466673135757
v -0.01946587674319744 -0.00783843081444502 0.00122907594777644
v -0.01946587674319744 -0.00781835056841373 -0.00135088979732245
v -0.01932791061699390 -0.00781931076198816 -0.00122759770601988
v -0.01931696571409702 -0.00783738493919373 0.00109473650809377
v -0.01906274445354939 -0.00744225922971964 -0.00148983637336642
v -0.01904931478202343 -0.00746444053947926 0.00136030116118491
v -0.01900803856551647 -0.01345879212021828 0.00061120261671022
v -0.01900803856551647 -0.01344764884561300 -0.00082057039253414
v -0.01900803856551647 -0.00783396326005459 0.00065497955074534
v -0.01900803856551647 -0.00782281998544931 -0.00077679345849901
v -0.01897023431956768 -0.00782347749918699 -0.00069231551606208
v -0.01896146126091480 -0.00783313717693090 0.00054888916201890
v -0.01884463615715504 -0.01345322187989950 -0.00010468388791196
v -0.01884463615715504 -0.00782839115709066 -0.00006090692113503
v -0.01862377859652042 -0.00744737219065428 -0.00083289889153093
v -0.01861301250755787 -0.00745922606438398 0.00069039769005030
v -0.01846963725984097 -0.00745340296998620 -0.00005798847632832
v -0.01749463565647602 -0.01348824147135019 0.00439517991617322
v -0.01749463565647602 -0.01341819949448109 -0.00460454728454351
v -0.01749463565647602 -0.01299214921891689 0.00489905569702387
v -0.01749463565647602 -0.01291432417929173 -0.00510064139962196
v -0.01749463565647602 -0.00799229927361012 0.00493796868249774
v -0.01749463565647602 -0.00791447423398495 -0.00506172841414809
v -0.01749463565647602 -0.00748842349275947 0.00444187503308058
v -0.01749463565647602 -0.00741838151589036 -0.00455785216763616
v -0.01692060939967632 -0.01348735298961401 0.00428100256249309
v -0.01692060939967632 -0.01348735298961401 0.00428100302815437
v -0.01692060939967632 -0.01341908890753984 -0.00449037039652467
v -0.01692060939967632 -0.00741926999762654 -0.00444367527961731
v -0.01691734604537487 -0.00748752476647496 0.00432634167373180
v -0.01672926731407642 -0.01299096457660198 0.00474681938067079
v -0.01672926731407642 -0.01291550882160664 -0.00494840508326888
v -0.01672926731407642 -0.00791565887629986 -0.00490949209779501
v -0.01672491617500782 -0.00799110159277916 0.00478392420336604
v -0.01643397472798824 -0.01348482351750135 0.00395585317164660
v -0.01643397472798824 -0.01348482351750135 0.00395585363730788
v -0.01643397472798824 -0.01342161837965250 -0.00416522100567818
v -0.01643397472798824 -0.00742180040106177 -0.00411852588877082
v -0.01642899028956890 -0.00748496595770121 0.00399753870442510
v -0.01610881648957729 -0.01348103489726782 0.00346923316828907
v -0.01610881648957729 -0.01342540699988604 -0.00367860076949000
v -0.01610881648957729 -0.00742558808997273 -0.00363190518692136
v -0.01610479317605495 -0.00748114241287112 0.00350611866451800
v -0.01608042232692242 -0.01298758946359158 0.00431328732520342
v -0.01608042232692242 -0.01291888207197189 -0.00451487256214023
v -0.01608042232692242 -0.00791903398931026 -0.00447595957666636
v -0.01607377268373966 -0.00798768922686577 0.00434552039951086
v -0.01599463634192944 -0.01347656827419996 0.00289522530511022
v -0.01599463634192944 -0.01342987362295389 -0.00310459290631115
v -0.01599463634192944 -0.00747675029560924 0.00294192065484822
v -0.01599463634192944 -0.00743005471304059 -0.00305789755657315
v -0.01564687676727772 -0.01298254076391459 0.00366446026600897
v -0.01564687676727772 -0.01292393263429403 -0.00386604573577642
v -0.01564687676727772 -0.00792408455163240 -0.00382713228464127
v -0.01564151234924793 -0.00798259023576975 0.00369029352441430
v -0.01549463532865047 -0.01297658402472734 0.00289911660365760
v -0.01549463532865047 -0.01292988937348127 -0.00310070184059441
v -0.01549463439732790 -0.00797673407942057 0.00293802935630083
v -0.01549463439732790 -0.00793003942817450 -0.00306178885512054
f 98 14 109
f 128 140 99
f 141 99 140
f 141 140 231
f 141 231 232
f 383 217 374
f 219 374 217
f 159 125 157
f 159 219 125
f 159 374 219
f 406 405 413
f 147 109 146
f 237 145 236
f 237 146 145
f 376 387 383
f 376 383 374
f 376 374 159
f 376 159 160
f 7 14 98
f 371 316 237
f 108 146 109
f 108 145 146
f 108 107 145
f 394 237 236
f 394 236 235
f 394 235 402
f 51 128 99
f 51 99 10
f 122 120 216
f 251 222 220
f 251 220 249
f 262 232 231
f 262 231 222
f 233 232 402
f 233 141 232
f 142 141 233
f 142 233 143
f 104 142 143
f 104 141 142
f 218 249 220
f 218 220 126
f 407 249 247
f 407 247 411
f 407 251 249
f 414 406 413
f 414 412 408
f 414 408 409
f 16 109 14
f 16 17 109
f 19 20 109
f 19 109 17
f 151 109 147
f 151 147 152
f 114 109 151
f 380 162 384
f 380 384 378
f 380 378 161
f 380 161 162
f 48 125 46
f 123 46 125
f 123 219 217
f 123 125 219
f 121 46 123
f 121 217 215
f 121 123 217
f 44 2 46
f 44 46 121
f 44 120 43
f 44 121 120
f 3 46 2
f 3 5 48
f 3 48 46
f 6 98 5
f 6 7 98
f 397 393 406
f 397 409 393
f 397 406 414
f 397 414 409
f 388 378 384
f 388 384 393
f 388 400 387
f 18 15 107
f 18 107 108
f 18 109 20
f 18 108 109
f 379 371 237
f 379 394 405
f 379 405 406
f 379 406 371
f 398 413 405
f 398 405 394
f 398 394 402
f 11 10 99
f 214 216 120
f 263 402 232
f 263 232 262
f 263 262 402
f 253 262 222
f 253 402 262
f 253 222 251
f 234 143 233
f 234 402 235
f 234 233 402
f 106 143 144
f 106 144 145
f 106 145 107
f 106 107 15
f 103 104 12
f 103 12 11
f 103 11 99
f 103 99 141
f 103 141 104
f 124 218 126
f 124 126 47
f 124 47 122
f 410 402 407
f 410 413 398
f 410 398 402
f 410 411 413
f 410 407 411
f 154 151 152
f 154 149 114
f 154 114 151
f 154 152 147
f 154 406 393
f 154 384 162
f 154 393 384
f 154 316 371
f 154 371 406
f 154 192 316
f 154 146 192
f 154 147 146
f 155 159 157
f 155 160 159
f 153 157 125
f 153 125 148
f 153 155 157
f 153 148 155
f 396 215 217
f 396 408 412
f 113 148 125
f 113 125 48
f 113 5 98
f 113 48 5
f 113 98 109
f 113 109 114
f 113 114 149
f 113 149 148
f 401 393 409
f 401 388 393
f 401 400 388
f 401 409 408
f 401 408 400
f 385 237 394
f 385 379 237
f 385 394 379
f 45 1 43
f 45 122 47
f 45 43 120
f 45 120 122
f 49 51 10
f 49 8 47
f 49 47 126
f 49 126 128
f 49 128 51
f 245 247 216
f 245 216 214
f 245 411 247
f 245 214 411
f 403 412 411
f 403 411 214
f 399 251 407
f 399 253 251
f 399 407 402
f 399 402 253
f 105 104 143
f 105 143 106
f 156 149 154
f 156 148 149
f 156 155 148
f 392 400 408
f 392 408 396
f 392 383 387
f 392 387 400
f 392 217 383
f 392 396 217
f 4 1 45
f 4 45 47
f 4 47 8
f 9 49 10
f 9 8 49
f 404 412 403
f 404 396 412
f 404 215 396
f 404 214 215
f 404 403 214
f 13 106 15
f 13 105 106
f 13 12 104
f 13 104 105
f 158 154 162
f 158 156 154
f 158 161 156
f 158 162 161
f 222 128 126
f 222 126 220
f 222 140 128
f 222 231 140
f 192 146 237
f 192 237 316
f 144 235 236
f 144 236 145
f 218 247 249
f 218 216 247
f 414 411 412
f 414 413 411
f 161 378 376
f 161 376 160
f 44 1 2
f 44 43 1
f 388 376 378
f 388 387 376
f 214 121 215
f 214 120 121
f 234 235 144
f 234 144 143
f 124 216 218
f 124 122 216
f 156 161 160
f 156 160 155
f 13 6 5
f 13 9 10
f 13 10 11
f 13 2 1
f 13 14 7
f 13 16 14
f 13 20 19
f 13 5 3
f 13 15 18
f 13 17 16
f 13 19 17
f 13 3 2
f 13 7 6
f 13 18 20
f 13 11 12
f 13 1 4
f 13 4 8
f 13 8 9

