# https://github.com/mikedh/trimesh
v -0.05049464479088783 -0.06247949600219727 0.01401103939861059
v -0.05049464106559753 -0.06273942440748215 0.02193803898990154
v -0.05049464106559753 -0.06267599016427994 0.01378689706325531
v -0.05049464106559753 -0.06254854053258896 0.01388883963227272
v -0.05049464106559753 -0.06222089752554893 0.01482921838760376
v -0.05049464106559753 -0.06220240890979767 0.02200068160891533
v -0.05049464106559753 -0.06211936846375465 0.01524553913623095
v -0.05049464106559753 -0.06207956001162529 0.01545606739819050
v -0.05049464106559753 -0.06207432225346565 0.01800155825912952
v -0.05049464106559753 -0.06205936521291733 0.01561567187309265
v -0.05049464106559753 -0.06205617263913155 0.01566952094435692
v -0.05049464106559753 -0.06186680495738983 0.01923448406159878
v -0.05049464106559753 -0.06125011667609215 0.02032207883894444
v -0.05049464106559753 -0.06029864028096199 0.02113316394388676
v -0.05049464106559753 -0.05912713706493378 0.02156990952789783
v -0.05049464106559753 -0.05787691101431847 0.02157964184880257
v -0.05049464106559753 -0.05669875070452690 0.02116118185222149
v -0.05049464106559753 -0.05573476478457451 0.02036500349640846
v -0.05049464106559753 -0.05510122328996658 0.01928713731467724
v -0.05049464106559753 -0.05487453937530518 0.01805759407579899
v -0.05049464106559753 -0.05485639348626137 0.01572555489838123
v -0.05049464106559753 -0.05477835610508919 0.01526712067425251
v -0.05049464106559753 -0.05465804412961006 0.01481800898909569
v -0.05049464106559753 -0.05451519042253494 0.01437596045434475
v -0.05049464106559753 -0.05435675755143166 0.01393867563456297
v -0.05049464106559753 -0.05427188426256180 0.01380398962646723
v -0.05049464106559753 -0.05413851141929626 0.01371192745864391
v -0.05049464106559753 -0.05397956445813179 0.01368033513426781
v -0.05049464106559753 -0.04950754716992378 0.01371513959020376
v -0.05049464106559753 -0.04934910684823990 0.01374920178204775
v -0.05049464106559753 -0.04921718686819077 0.01384332962334156
v -0.05049464106559753 -0.04913441836833954 0.01397932134568691
v -0.05049464106559753 -0.04884670302271843 0.01486396323889494
v -0.05049464106559753 -0.04873342439532280 0.01531447563320398
v -0.05049464106559753 -0.04868892952799797 0.01554245129227638
v -0.05049464106559753 -0.04868080839514732 0.01810579746961594
v -0.05049464106559753 -0.04866265878081322 0.01577376015484333
v -0.05049464106559753 -0.04847329109907150 0.01933872140944004
v -0.05049464106559753 -0.04785660281777382 0.02042631804943085
v -0.05049464106559753 -0.04690512642264366 0.02123740315437317
v -0.05049464106559753 -0.04573362320661545 0.02167415060102940
v -0.05049464106559753 -0.04448339343070984 0.02168388105928898
v -0.05049464106559753 -0.04330523684620857 0.02126542106270790
v -0.05049464106559753 -0.04234125092625618 0.02046924270689487
v -0.05049464106559753 -0.04170770943164825 0.01939137838780880
v -0.05049464106559753 -0.04148102551698685 0.01816183142364025
v -0.05049464106559753 -0.04146287590265274 0.01582979410886765
v -0.05049464106559753 -0.04138484224677086 0.01537135895341635
v -0.05049464106559753 -0.04126452654600143 0.01492224819958210
v -0.05049464106559753 -0.04112167656421661 0.01448019966483116
v -0.05049464106559753 -0.04096324369311333 0.01404291577637196
v -0.05049464106559753 -0.04087836667895317 0.01390822883695364
v -0.05049464106559753 -0.04074499756097794 0.01381616666913033
v -0.05049464106559753 -0.04058604687452316 0.01378457341343164
v -0.05049464106559753 -0.03574090451002121 0.01408355962485075
v -0.05049463734030724 -0.03611403331160545 0.01381937880069017
v -0.05049463734030724 -0.03595559298992157 0.01385344285517931
v -0.05049463734030724 -0.03582367300987244 0.01394756976515055
v -0.05049463734030724 -0.03545318916440010 0.01496820244938135
v -0.05049463734030724 -0.03533991053700447 0.01541871484369040
v -0.05049463734030724 -0.03529541566967964 0.01564669050276279
v -0.05049463734030724 -0.03528729453682899 0.01821003668010235
v -0.05049463734030724 -0.03526914492249489 0.01587799936532974
v -0.05049463734030724 -0.03507977724075317 0.01944296061992645
v -0.05049463734030724 -0.03446308895945549 0.02053055539727211
v -0.05049463734030724 -0.03351161256432533 0.02134164236485958
v -0.05049463734030724 -0.03234010934829712 0.02177838794887066
v -0.05049463734030724 -0.03108987957239151 0.02178811840713024
v -0.05049463734030724 -0.02991172112524509 0.02136965841054916
v -0.05049463734030724 -0.02894773520529270 0.02057348191738129
v -0.05049463734030724 -0.02831419371068478 0.01949561573565006
v -0.05049463734030724 -0.02808751165866852 0.01826607063412666
v -0.05049463734030724 -0.02806936204433441 0.01593403331935406
v -0.05049463734030724 -0.02799132838845253 0.01547559816390276
v -0.05049463734030724 -0.02787101268768311 0.01502648741006851
v -0.05049463734030724 -0.02772816270589828 0.01458443887531757
v -0.05049463734030724 -0.02756972983479500 0.01414715498685837
v -0.05049463734030724 -0.02748485468327999 0.01401246897876263
v -0.05049463734030724 -0.02735148370265961 0.01392040587961674
v -0.05049463734030724 -0.02719253487884998 0.01388881262391806
v -0.05049463734030724 -0.02272051759064198 0.01392361707985401
v -0.05049463734030724 -0.02256207913160324 0.01395768113434315
v -0.05049463734030724 -0.02243015915155411 0.01405180897563696
v -0.05049463734030724 -0.02234739065170288 0.01418779976665974
v -0.05049463734030724 -0.02205967344343662 0.01507244072854519
v -0.05049463734030724 -0.02194639667868614 0.01552295405417681
v -0.05049463734030724 -0.02190190181136131 0.01575093157589436
v -0.05049463734030724 -0.02189377881586552 0.01831427402794361
v -0.05049463734030724 -0.02187562920153141 0.01598223671317101
v -0.05049463734030724 -0.02168626151978970 0.01954720169305801
v -0.05049463734030724 -0.02106957510113716 0.02063479647040367
v -0.05049463734030724 -0.02011809684336185 0.02144587971270084
v -0.05049463734030724 -0.01894659362733364 0.02188262715935707
v -0.05049463734030724 -0.01769636571407318 0.02189235948026180
v -0.05049463734030724 -0.01651820540428162 0.02147389948368073
v -0.05049463734030724 -0.01555422041565180 0.02067771926522255
v -0.05049463734030724 -0.01492067985236645 0.01959985494613647
v -0.05049463734030724 -0.01469399686902761 0.01837030984461308
v -0.05049463734030724 -0.01467584818601608 0.01603827252984047
v -0.05049463734030724 -0.01467183604836464 0.01598470099270344
v -0.05049463734030724 -0.01464917790144682 0.01582539267838001
v -0.05049463734030724 -0.01462817098945379 0.02237094379961491
v -0.05049463734030724 -0.01460600178688765 0.01561511214822531
v -0.05049463734030724 -0.01449791900813580 0.01520010083913803
v -0.05049463734030724 -0.01437077578157187 0.01479509193450212
v -0.05049463734030724 -0.01422676164656878 0.01438658032566309
v -0.05049463734030724 -0.01415582001209259 0.01426547206938267
v -0.05049463734030724 -0.01409024372696877 0.02231666631996632
v -0.05049463734030724 -0.01402680389583111 0.01416552346199751
v -0.05049286410212517 -0.06275784224271774 0.01375427562743425
v -0.05049063637852669 -0.01396147254854441 0.02228992246091366
v -0.05048231407999992 -0.01380582526326180 0.01411527488380671
v -0.05046704411506653 -0.06300675123929977 0.01374319288879633
v -0.05046704038977623 -0.01369539927691221 0.01412697136402130
v -0.05046514049172401 -0.01374631747603416 0.02224896289408207
v -0.05043567344546318 -0.06322110444307327 0.02183968201279640
v -0.05040258914232254 -0.01348954532295465 0.02220900170505047
v -0.05040179193019867 -0.06327836215496063 0.01379095856100321
v -0.05033107101917267 -0.01323486212641001 0.01420571282505989
v -0.05027227103710175 -0.06365495175123215 0.02179084718227386
v -0.05022669211030006 -0.06373830884695053 0.02179039083421230
v -0.05022669211030006 -0.06367631256580353 0.01382448710501194
v -0.05022668465971947 -0.01308918651193380 0.02218458242714405
v -0.05022668465971947 -0.01302718836814165 0.01421867962926626
v -0.05011054500937462 -0.06393946707248688 0.02178825810551643
v -0.05011053755879402 -0.01288801338523626 0.02218558266758919
v -0.05005994066596031 -0.06396522372961044 0.01383465155959129
v -0.05005993321537971 -0.01273846626281738 0.01423333957791328
v -0.04999464377760887 -0.06414011865854263 0.02177441120147705
v -0.04999464377760887 -0.06335254013538361 0.02226337790489197
v -0.04999464377760887 -0.06324361264705658 0.02230700105428696
v -0.04999464005231857 -0.06220630183815956 0.02250066772103310
v -0.04999463632702827 -0.01463206112384796 0.02287092804908752
v -0.04999463632702827 -0.01359186321496964 0.02269343286752701
v -0.04999463632702827 -0.01348226796835661 0.02265150845050812
v -0.04999463632702827 -0.01268717460334301 0.02217485941946507
v -0.04989464581012726 -0.06191343814134598 0.01381210889667273
v -0.04989464581012726 -0.06157409399747849 0.01493607461452484
v -0.04989464581012726 -0.05491787940263748 0.01372620835900307
v -0.04989464208483696 -0.06425181776285172 0.01387040782719851
v -0.04989464208483696 -0.06376416981220245 0.01348432898521423
v -0.04989464208483696 -0.06320738792419434 0.01320710405707359
v -0.04989464208483696 -0.06286228448152542 0.01314367447048426
v -0.04989464208483696 -0.06243332102894783 0.01323778741061687
v -0.04989464208483696 -0.06208605319261551 0.01350660901516676
v -0.04989464208483696 -0.06164250150322914 0.01467045675963163
v -0.04989464208483696 -0.06147434189915657 0.01800622791051865
v -0.04989464208483696 -0.06145619228482246 0.01567418873310089
v -0.04989464208483696 -0.06130141019821167 0.01903366483747959
v -0.04989464208483696 -0.06125492230057716 0.01915602199733257
v -0.04989464208483696 -0.06078750267624855 0.01993999443948269
v -0.04989464208483696 -0.06061219796538353 0.02013432234525681
v -0.04989464208483696 -0.05999460816383362 0.02061589807271957
v -0.04989464208483696 -0.05964401736855507 0.02079219557344913
v -0.04989464208483696 -0.05901835486292839 0.02097985520958900
v -0.04989464208483696 -0.05849777907133102 0.02102948352694511
v -0.04989464208483696 -0.05797649547457695 0.02098796330392361
v -0.04989464208483696 -0.05734798684716225 0.02081006392836571
v -0.04989464208483696 -0.05699469894170761 0.02063924819231033
v -0.04989464208483696 -0.05636968463659286 0.02016734145581722
v -0.04989464208483696 -0.05619137361645699 0.01997576467692852
v -0.04989464208483696 -0.05571180954575539 0.01919916085898876
v -0.04989464208483696 -0.05566342547535896 0.01907754503190517
v -0.04989464208483696 -0.05547452345490456 0.01805292442440987
v -0.04989464208483696 -0.05545637384057045 0.01572088710963726
v -0.04989464208483696 -0.05531114712357521 0.01492398977279663
v -0.04989464208483696 -0.05523254349827766 0.01464577857404947
v -0.04989464208483696 -0.05470569431781769 0.01338949147611856
v -0.04989464208483696 -0.05437226966023445 0.01315933465957642
v -0.04989464208483696 -0.05397489294409752 0.01308035291731358
v -0.04989464208483696 -0.04950287938117981 0.01311515737324953
v -0.04989464208483696 -0.04910678043961525 0.01320031471550465
v -0.04989464208483696 -0.04877698048949242 0.01343563292175531
v -0.04989464208483696 -0.04857005923986435 0.01377561222761869
v -0.04989464208483696 -0.04826951399445534 0.01470078434795141
v -0.04989464208483696 -0.04819548130035400 0.01497936993837357
v -0.04989464208483696 -0.04808082804083824 0.01811046712100506
v -0.04989464208483696 -0.04806267842650414 0.01577842980623245
v -0.04989464208483696 -0.04152436554431915 0.01383044663816690
v -0.04989464208483696 -0.03517654165625572 0.01387985050678253
v -0.04989464208483696 -0.03480196744203568 0.01508360821753740
v -0.04989464208483696 -0.02813084982335567 0.01393468677997589
v -0.04989463835954666 -0.04790789633989334 0.01913790591061115
v -0.04989463835954666 -0.04786140844225883 0.01926025934517384
v -0.04989463835954666 -0.04739398881793022 0.02004423364996910
v -0.04989463835954666 -0.04721868410706520 0.02023856155574322
v -0.04989463835954666 -0.04660109058022499 0.02072013914585114
v -0.04989463835954666 -0.04625050351023674 0.02089643478393555
v -0.04989463835954666 -0.04562484100461006 0.02108409255743027
v -0.04989463835954666 -0.04510426521301270 0.02113372460007668
v -0.04989463835954666 -0.04458298161625862 0.02109220251441002
v -0.04989463835954666 -0.04395447298884392 0.02091430500149727
v -0.04989463835954666 -0.04360118135809898 0.02074348554015160
v -0.04989463835954666 -0.04297617077827454 0.02027157880365849
v -0.04989463835954666 -0.04279785975813866 0.02008000575006008
v -0.04989463835954666 -0.04231829568743706 0.01930340193212032
v -0.04989463835954666 -0.04226991161704063 0.01918178424239159
v -0.04989463835954666 -0.04208100959658623 0.01815716177225113
v -0.04989463835954666 -0.04206285998225212 0.01582512445747852
v -0.04989463835954666 -0.04191763326525688 0.01502822898328304
v -0.04989463835954666 -0.04183902963995934 0.01475001871585846
v -0.04989463835954666 -0.04131217673420906 0.01349373068660498
v -0.04989463835954666 -0.04097875207662582 0.01326357387006283
v -0.04989463835954666 -0.04058137908577919 0.01318459119647741
v -0.04989463835954666 -0.03610936179757118 0.01321939751505852
v -0.04989463835954666 -0.03571326658129692 0.01330455485731363
v -0.04989463835954666 -0.03538346290588379 0.01353987306356430
v -0.04989463835954666 -0.03487600013613701 0.01480502355843782
v -0.04989463835954666 -0.03468731045722961 0.01821470633149147
v -0.04989463835954666 -0.03466916084289551 0.01588266901671886
v -0.04989463835954666 -0.03451438248157501 0.01924214325845242
v -0.04989463835954666 -0.03446789085865021 0.01936449855566025
v -0.04989463835954666 -0.03400047495961189 0.02014847286045551
v -0.04989463835954666 -0.03382516652345657 0.02034280076622963
v -0.04989463835954666 -0.03320757672190666 0.02082437649369240
v -0.04989463835954666 -0.03285698965191841 0.02100067213177681
v -0.04989463835954666 -0.03223132342100143 0.02118833363056183
v -0.04989463835954666 -0.03171075135469437 0.02123796194791794
v -0.04989463835954666 -0.03118946775794029 0.02119644172489643
v -0.04989463835954666 -0.03056095726788044 0.02101854234933853
v -0.04989463835954666 -0.03020766749978065 0.02084772475063801
v -0.04989463835954666 -0.02958265691995621 0.02037581801414490
v -0.04989463835954666 -0.02940434589982033 0.02018424309790134
v -0.04989463835954666 -0.02892478369176388 0.01940763927996159
v -0.04989463835954666 -0.02887639589607716 0.01928602159023285
v -0.04989463835954666 -0.02868749387562275 0.01826140098273754
v -0.04989463835954666 -0.02866934426128864 0.01592936366796494
v -0.04989463835954666 -0.02852411940693855 0.01513246819376945
v -0.04989463835954666 -0.02844551578164101 0.01485425792634487
v -0.04989463835954666 -0.02791866473853588 0.01359797175973654
v -0.04989463835954666 -0.02758524008095264 0.01336781308054924
v -0.04989463835954666 -0.02718786522746086 0.01328883040696383
v -0.04989463835954666 -0.02271584793925285 0.01332363579422235
v -0.04989463835954666 -0.02231975086033344 0.01340879313647747
v -0.04989463835954666 -0.02198994904756546 0.01364411227405071
v -0.04989463835954666 -0.02178303152322769 0.01398408971726894
v -0.04989463835954666 -0.02140845172107220 0.01518784742802382
v -0.04989463835954666 -0.02129379659891129 0.01831894367933273
v -0.04989463835954666 -0.02112086676061153 0.01934638246893883
v -0.04989463835954666 -0.02107437700033188 0.01946873776614666
v -0.04989463835954666 -0.02060695923864841 0.02025271207094193
v -0.04989463835954666 -0.02043165452778339 0.02044703811407089
v -0.04989463835954666 -0.01981406286358833 0.02092861570417881
v -0.04989463835954666 -0.01946347393095493 0.02110491320490837
v -0.04989463835954666 -0.01883780956268311 0.02129257097840309
v -0.04989463835954666 -0.01831723563373089 0.02134220302104950
v -0.04989463835954666 -0.01478965673595667 0.01417886465787888
v -0.04989463463425636 -0.02127564884722233 0.01598690636456013
v -0.04989463463425636 -0.01779595203697681 0.02130068093538284
v -0.04989463463425636 -0.01716744340956211 0.02112278155982494
v -0.04989463463425636 -0.01681415364146233 0.02095196396112442
v -0.04989463463425636 -0.01618914119899273 0.02048005908727646
v -0.04989463463425636 -0.01601083204150200 0.02028848230838776
v -0.04989463463425636 -0.01553126890212297 0.01951187849044800
v -0.04989463463425636 -0.01548288110643625 0.01939026266336441
v -0.04989463463425636 -0.01529398001730442 0.01836564019322395
v -0.04989463463425636 -0.01527582854032516 0.01603360287845135
v -0.04989463463425636 -0.01514645386487246 0.01529741194099188
v -0.04989463463425636 -0.01461230684071779 0.01387608796358109
v -0.04989463463425636 -0.01426089555025101 0.01361270528286695
v -0.04989463463425636 -0.01383052673190832 0.01352527923882008
v -0.04989463463425636 -0.01348644215613604 0.01359407231211662
v -0.04989463463425636 -0.01341201271861792 0.01362441387027502
v -0.04989463463425636 -0.01293404679745436 0.01387992873787880
v -0.04989463463425636 -0.01245246920734644 0.01427355129271746
v -0.04989140853285789 -0.01250710338354111 0.02201186493039131
v -0.04988961666822433 -0.06432072073221207 0.02160550467669964
v -0.04988960921764374 -0.01244383305311203 0.01428228709846735
v -0.04961984232068062 -0.01203201990574598 0.02140745148062706
v -0.04955738037824631 -0.06484230607748032 0.01468151900917292
v -0.04951512441039085 -0.01184781827032566 0.02104466781020164
v -0.04951464012265205 -0.06491760909557343 0.01484517846256495
v -0.04951415583491325 -0.06496344506740570 0.02062720246613026
v -0.04951414838433266 -0.01180110964924097 0.01526058930903673
v -0.04941245168447495 -0.01166535541415215 0.02045122720301151
v -0.04939349368214607 -0.06513373553752899 0.01565324328839779
v -0.04938231036067009 -0.06518286466598511 0.01947741024196148
v -0.04938231036067009 -0.06515574455261230 0.01599342562258244
v -0.04938230663537979 -0.01160880550742149 0.01989436708390713
v -0.04938230663537979 -0.01158169005066156 0.01641038060188293
v -0.04474571347236633 -0.02408909425139427 0.01731306873261929
v -0.04474570974707603 -0.01408939715474844 0.01739089377224445
v -0.04449464380741119 -0.06320739537477493 0.01320710405707359
v -0.04449464380741119 -0.06281726807355881 0.01314444560557604
v -0.04449464380741119 -0.06243332102894783 0.01323778834193945
v -0.04449464380741119 -0.06213249266147614 0.01301686372607946
v -0.04449464380741119 -0.06211550533771515 0.01347256079316139
v -0.04449464380741119 -0.06191343814134598 0.01381210889667273
v -0.04449464380741119 -0.06157409399747849 0.01493607461452484
v -0.04449464380741119 -0.06147434189915657 0.01800622791051865
v -0.04449464380741119 -0.06145619228482246 0.01567418873310089
v -0.04449464380741119 -0.06125492230057716 0.01915602199733257
v -0.04449464380741119 -0.06061219796538353 0.02013432234525681
v -0.04449464380741119 -0.05964402109384537 0.02079219557344913
v -0.04449464008212090 -0.05849777907133102 0.02102948352694511
v -0.04449464008212090 -0.05734798684716225 0.02081006392836571
v -0.04449464008212090 -0.05636968463659286 0.02016734145581722
v -0.04449464008212090 -0.05571181327104568 0.01919916085898876
v -0.04449464008212090 -0.05547452345490456 0.01805292442440987
v -0.04449464008212090 -0.05545637384057045 0.01572088710963726
v -0.04449464008212090 -0.05531114712357521 0.01492398977279663
v -0.04449464008212090 -0.05491787940263748 0.01372620835900307
v -0.04449464008212090 -0.05470232293009758 0.01338598132133484
v -0.04449464008212090 -0.05437002703547478 0.01315838936716318
v -0.04449464008212090 -0.05397489294409752 0.01308035291731358
v -0.04449464008212090 -0.04950287938117981 0.01311515737324953
v -0.04449464008212090 -0.04910900816321373 0.01319933496415615
v -0.04449464008212090 -0.04878029599785805 0.01343207154422998
v -0.04449464008212090 -0.04857005923986435 0.01377561222761869
v -0.04449464008212090 -0.04819548130035400 0.01497936993837357
v -0.04449464008212090 -0.04808082804083824 0.01811046712100506
v -0.04449464008212090 -0.04806267842650414 0.01577842980623245
v -0.04449464008212090 -0.04786140844225883 0.01926025934517384
v -0.04449464008212090 -0.04721868410706520 0.02023856155574322
v -0.04449464008212090 -0.04625050351023674 0.02089643478393555
v -0.04449464008212090 -0.04510426521301270 0.02113372460007668
v -0.04449464008212090 -0.04395447298884392 0.02091430500149727
v -0.04449464008212090 -0.04297617077827454 0.02027157880365849
v -0.04449464008212090 -0.04231829941272736 0.01930340193212032
v -0.04449464008212090 -0.04208100959658623 0.01815716177225113
v -0.04449464008212090 -0.04206285998225212 0.01582512445747852
v -0.04449464008212090 -0.04191763326525688 0.01502822898328304
v -0.04449464008212090 -0.04152436554431915 0.01383044756948948
v -0.04449464008212090 -0.04130880907177925 0.01349022053182125
v -0.04449464008212090 -0.04097651317715645 0.01326262857764959
v -0.04449464008212090 -0.04058137908577919 0.01318459119647741
v -0.04449464008212090 -0.03610936179757118 0.01321939751505852
v -0.04449464008212090 -0.03571326658129692 0.01330455485731363
v -0.04449464008212090 -0.03538346290588379 0.01353987306356430
v -0.04449464008212090 -0.03517654538154602 0.01387985143810511
v -0.04449464008212090 -0.03480196744203568 0.01508360821753740
v -0.04449464008212090 -0.03468731418251991 0.01821470633149147
v -0.04449464008212090 -0.03466916456818581 0.01588266901671886
v -0.04449464008212090 -0.03446789458394051 0.01936449855566025
v -0.04449464008212090 -0.03382517024874687 0.02034280076622963
v -0.04449464008212090 -0.03285698965191841 0.02100067213177681
v -0.04449464008212090 -0.03171075135469437 0.02123796194791794
v -0.04449464008212090 -0.03056095913052559 0.02101854234933853
v -0.04449464008212090 -0.02958265691995621 0.02037581801414490
v -0.04449463635683060 -0.02892478369176388 0.01940763927996159
v -0.04449463635683060 -0.02868749387562275 0.01826140098273754
v -0.04449463635683060 -0.02866934426128864 0.01592936366796494
v -0.04449463635683060 -0.02852411940693855 0.01513246819376945
v -0.04449463635683060 -0.02813084982335567 0.01393468677997589
v -0.04449463635683060 -0.02791866473853588 0.01359797082841396
v -0.04449463635683060 -0.02758524008095264 0.01336781308054924
v -0.04449463635683060 -0.02718786522746086 0.01328883040696383
v -0.04449463635683060 -0.02271584793925285 0.01332363579422235
v -0.04449463635683060 -0.02232198044657707 0.01340781338512897
v -0.04449463635683060 -0.02199326641857624 0.01364054903388023
v -0.04449463635683060 -0.02178303152322769 0.01398408971726894
v -0.04449463635683060 -0.02140845172107220 0.01518784742802382
v -0.04449463635683060 -0.02129379846155643 0.01831894367933273
v -0.04449463635683060 -0.02127564884722233 0.01598690636456013
v -0.04449463635683060 -0.02107437886297703 0.01946873776614666
v -0.04449463635683060 -0.02043165452778339 0.02044703811407089
v -0.04449463635683060 -0.01946347393095493 0.02110491320490837
v -0.04449463635683060 -0.01831723563373089 0.02134220302104950
v -0.04449463635683060 -0.01716744340956211 0.02112278155982494
v -0.04449463635683060 -0.01618914119899273 0.02048005908727646
v -0.04449463635683060 -0.01553126983344555 0.01951187849044800
v -0.04449463635683060 -0.01529398001730442 0.01836564019322395
v -0.04449463635683060 -0.01527582947164774 0.01603360287845135
v -0.04449463635683060 -0.01514645479619503 0.01529741194099188
v -0.04449463635683060 -0.01478965673595667 0.01417886465787888
v -0.04449463635683060 -0.01458232756704092 0.01384250260889530
v -0.04449463635683060 -0.01455825287848711 0.01338712498545647
v -0.04449463635683060 -0.01426089555025101 0.01361270528286695
v -0.04449463635683060 -0.01387554779648781 0.01352534908801317
v -0.04449463635683060 -0.01348644308745861 0.01359407231211662
v -0.04399463906884193 -0.02533905580639839 0.01730334013700485
v -0.04399463906884193 -0.02522796578705311 0.01782831177115440
v -0.04399463906884193 -0.02520956285297871 0.01675894670188427
v -0.04399463906884193 -0.02516672946512699 0.01667966321110725
v -0.04399463906884193 -0.02488904260098934 0.01827358081936836
v -0.04399463906884193 -0.02485552057623863 0.01632560230791569
v -0.04399463906884193 -0.02470565028488636 0.01622570678591728
v -0.04399463906884193 -0.02438980713486671 0.01852635852992535
v -0.04399463906884193 -0.02434788271784782 0.01609015092253685
v -0.04399463906884193 -0.02407936751842499 0.01606310717761517
v -0.04399463906884193 -0.02383030578494072 0.01853598654270172
v -0.04399463906884193 -0.02378838136792183 0.01609977893531322
v -0.04399463906884193 -0.02345568872988224 0.01623543351888657
v -0.04399463906884193 -0.02332266792654991 0.01830053701996803
v -0.04399463906884193 -0.02328914590179920 0.01635255664587021
v -0.04399463906884193 -0.02300173044204712 0.01669651456177235
v -0.04399463906884193 -0.02296862751245499 0.01786719076335430
v -0.04399463906884193 -0.02295022457838058 0.01679782941937447
v -0.04399463906884193 -0.02283913269639015 0.01732279732823372
v -0.04399463534355164 -0.01533936057239771 0.01738116517663002
v -0.04399463534355164 -0.01521979551762342 0.01792446896433830
v -0.04399463534355164 -0.01520986668765545 0.01683677174150944
v -0.04399463534355164 -0.01516703236848116 0.01675748825073242
v -0.04399463534355164 -0.01487634237855673 0.01836208812892437
v -0.04399463534355164 -0.01485582347959280 0.01640342921018600
v -0.04399463534355164 -0.01470595411956310 0.01630353182554245
v -0.04399463534355164 -0.01437702495604753 0.01860735379159451
v -0.04399463534355164 -0.01434818468987942 0.01616797596216202
v -0.04399463534355164 -0.01407966855913401 0.01614093221724033
v -0.04399463534355164 -0.01382073853164911 0.01861168257892132
v -0.04399463534355164 -0.01378868520259857 0.01617760397493839
v -0.04399463534355164 -0.01345599070191383 0.01631325855851173
v -0.04399463534355164 -0.01331766415387392 0.01837421953678131
v -0.04399463534355164 -0.01328944787383080 0.01643038354814053
v -0.04399463534355164 -0.01300203520804644 0.01677433960139751
v -0.04399463534355164 -0.01296744029968977 0.01794199831783772
v -0.04399463534355164 -0.01295052561908960 0.01687565445899963
v -0.04399463534355164 -0.01283943559974432 0.01740062236785889
v -0.04299464076757431 -0.06464285403490067 0.01433905400335789
v -0.04299464076757431 -0.06463618576526642 0.01348148286342621
v -0.04299464076757431 -0.06443843990564346 0.01252628490328789
v -0.04299464076757431 -0.06426058709621429 0.01387900765985250
v -0.04299464076757431 -0.06389021873474121 0.01171946804970503
v -0.04299464076757431 -0.06328228861093521 0.01323628332465887
v -0.04299464076757431 -0.06307496130466461 0.01118386536836624
v -0.04299464076757431 -0.06213249266147614 0.01301686372607946
v -0.04299464076757431 -0.06211680173873901 0.01100101601332426
v -0.04299463704228401 -0.01455825287848711 0.01338712498545647
v -0.04299463704228401 -0.01454256288707256 0.01137127634137869
v -0.04299463704228401 -0.01358736399561167 0.01156901754438877
v -0.04299463704228401 -0.01341201364994049 0.01362441387027502
v -0.04299463704228401 -0.01278054714202881 0.01211724523454905
v -0.04299463704228401 -0.01244383398443460 0.01428228709846735
v -0.04299463704228401 -0.01224494539201260 0.01293249614536762
v -0.04299463704228401 -0.01206876989454031 0.01474822871387005
v -0.04299463704228401 -0.01206209510564804 0.01389065757393837
v -0.04272665455937386 -0.01180469896644354 0.01525177434086800
v -0.04272300377488136 -0.06491845846176147 0.01484718639403582
v -0.04262338578701019 -0.01170367002487183 0.01553996745496988
v -0.04255228489637375 -0.06509354710578918 0.01540862116962671
v -0.04249464347958565 -0.06515574455261230 0.01599342562258244
v -0.04249464347958565 -0.06513617187738419 0.01347759272903204
v -0.04249464347958565 -0.06489887833595276 0.01233135350048542
v -0.04249464347958565 -0.06424100697040558 0.01136317383497953
v -0.04249464347958565 -0.06326270848512650 0.01072045043110847
v -0.04249464347958565 -0.06211291253566742 0.01050103083252907
v -0.04249463602900505 -0.01453867182135582 0.01087129116058350
v -0.04249463602900505 -0.01339243352413177 0.01110858097672462
v -0.04249463602900505 -0.01242425385862589 0.01176645420491695
v -0.04249463602900505 -0.01178153045475483 0.01274475641548634
v -0.04249463602900505 -0.01158169098198414 0.01641038060188293
v -0.04249463602900505 -0.01156211085617542 0.01389454770833254
v -0.04049464315176010 -0.06518286466598511 0.01947741024196148
v -0.04049464315176010 -0.06517131626605988 0.01799336448311806
v -0.04049464315176010 -0.06515575200319290 0.01599342562258244
v -0.04049464315176010 -0.06513617187738419 0.01347759272903204
v -0.04049464315176010 -0.06497133523225784 0.02060751989483833
v -0.04049464315176010 -0.06489887833595276 0.01233135350048542
v -0.04049464315176010 -0.06433061510324478 0.02159540541470051
v -0.04049464315176010 -0.06432072073221207 0.02160550467669964
v -0.04049464315176010 -0.06424100697040558 0.01136317383497953
v -0.04049464315176010 -0.06335904449224472 0.02226061373949051
v -0.04049464315176010 -0.06326270848512650 0.01072045043110847
v -0.04049464315176010 -0.06220630183815956 0.02250066772103310
v -0.04049464315176010 -0.06211291253566742 0.01050103083252907
v -0.04049463570117950 -0.01463206205517054 0.02287092804908752
v -0.04049463570117950 -0.01453867182135582 0.01087129116058350
v -0.04049463570117950 -0.01348226983100176 0.02265150845050812
v -0.04049463570117950 -0.01339243445545435 0.01110858097672462
v -0.04049463570117950 -0.01250396855175495 0.02200878411531448
v -0.04049463570117950 -0.01242425478994846 0.01176645420491695
v -0.04049463570117950 -0.01184609625488520 0.02104060538113117
v -0.04049463570117950 -0.01178153045475483 0.01274475641548634
v -0.04049463570117950 -0.01160880643874407 0.01989436708390713
v -0.04049463570117950 -0.01159725617617369 0.01841032132506371
v -0.04049463570117950 -0.01158169098198414 0.01641038060188293
v -0.04049463570117950 -0.01156211085617542 0.01389454770833254
v -0.04043699800968170 -0.06511822342872620 0.01857906579971313
v -0.04043699800968170 -0.06509355455636978 0.01540862116962671
v -0.04043699055910110 -0.01165945362299681 0.01899512484669685
v -0.04043699055910110 -0.01163477823138237 0.01582467928528786
v -0.04026627913117409 -0.06495189666748047 0.01914315670728683
v -0.04026627913117409 -0.06491845846176147 0.01484718639403582
v -0.04026627540588379 -0.01180111058056355 0.01526058930903673
v -0.04026222229003906 -0.01183867175132036 0.01956626027822495
v -0.04010184109210968 -0.06479007750749588 0.01948046498000622
v -0.04010183364152908 -0.01200159732252359 0.01989131048321724
v -0.04004827141761780 -0.06473553180694580 0.01957403309643269
v -0.04004826396703720 -0.01205758750438690 0.01998401619493961
v -0.03999464213848114 -0.06467749923467636 0.01966579630970955
v -0.03999464213848114 -0.06464285403490067 0.01433905400335789
v -0.03999464213848114 -0.06463618576526642 0.01348148286342621
v -0.03999464213848114 -0.06450660526752472 0.02042305842041969
v -0.03999464213848114 -0.06443843990564346 0.01252628490328789
v -0.03999464213848114 -0.06430917233228683 0.02012145891785622
v -0.03999464213848114 -0.06426058709621429 0.01387900765985250
v -0.03999464213848114 -0.06397267431020737 0.02124629914760590
v -0.03999464213848114 -0.06389021873474121 0.01171946804970503
v -0.03999464213848114 -0.06334099173545837 0.02077933214604855
v -0.03999464213848114 -0.06328228861093521 0.01323628332465887
v -0.03999464213848114 -0.06316303461790085 0.02180063910782337
v -0.03999464213848114 -0.06307496130466461 0.01118386536836624
v -0.03999464213848114 -0.06220241263508797 0.02200068160891533
v -0.03999464213848114 -0.06219475343823433 0.02101662196218967
v -0.03999464213848114 -0.06213249266147614 0.01301686372607946
v -0.03999464213848114 -0.06211680173873901 0.01100101601332426
v -0.03999463468790054 -0.01462817285209894 0.02237094379961491
v -0.03999463468790054 -0.01462051365524530 0.02138688229024410
v -0.03999463468790054 -0.01455825380980968 0.01338712498545647
v -0.03999463468790054 -0.01454256381839514 0.01137127634137869
v -0.03999463468790054 -0.01367001049220562 0.02218809351325035
v -0.03999463468790054 -0.01358736399561167 0.01156901754438877
v -0.03999463468790054 -0.01347072049975395 0.02116746269166470
v -0.03999463468790054 -0.01341201364994049 0.01362441387027502
v -0.03999463468790054 -0.01285475958138704 0.02165248990058899
v -0.03999463468790054 -0.01278054807335138 0.01211724523454905
v -0.03999463468790054 -0.01249241735786200 0.02052473835647106
v -0.03999463468790054 -0.01244383398443460 0.01428228709846735
v -0.03999463468790054 -0.01230653282254934 0.02084567397832870
v -0.03999463468790054 -0.01224494539201260 0.01293249614536762
v -0.03999463468790054 -0.01211703941226006 0.02007486484944820
v -0.03999463468790054 -0.01206877082586288 0.01474822871387005
v -0.03999463468790054 -0.01206209510564804 0.01389065757393837
v -0.03899464383721352 -0.06517131626605988 0.01799336448311806
v -0.03899464383721352 -0.06515575200319290 0.01599342562258244
v -0.03899464383721352 -0.06495189666748047 0.01914315670728683
v -0.03899464383721352 -0.06491845846176147 0.01484718639403582
v -0.03899464383721352 -0.06430917233228683 0.02012145891785622
v -0.03899464383721352 -0.06426058709621429 0.01387900765985250
v -0.03899464383721352 -0.06334099173545837 0.02077933214604855
v -0.03899464383721352 -0.06328228861093521 0.01323628332465887
v -0.03899464383721352 -0.06219475343823433 0.02101662196218967
v -0.03899464383721352 -0.06213249266147614 0.01301686372607946
v -0.03899463638663292 -0.02562017925083637 0.02130127511918545
v -0.03899463638663292 -0.02555791847407818 0.01330151688307524
v -0.03897542133927345 -0.02581511437892914 0.02128054201602936
v -0.03896056488156319 -0.02581699565052986 0.01333357486873865
v -0.03891851752996445 -0.02600225992500782 0.02122217789292336
v -0.03886066377162933 -0.02605894580483437 0.01343159563839436
v -0.03870174288749695 -0.02632498554885387 0.02100288681685925
v -0.03849464282393456 -0.06467133015394211 0.01799725554883480
v -0.03849464282393456 -0.06465576589107513 0.01599731668829918
v -0.03849464282393456 -0.06448847800493240 0.01895541511476040
v -0.03849464282393456 -0.06445802748203278 0.01504211779683828
v -0.03849464282393456 -0.06395287811756134 0.01977066695690155
v -0.03849464282393456 -0.06390979886054993 0.01423530094325542
v -0.03849464282393456 -0.06314606219530106 0.02031889557838440
v -0.03849464282393456 -0.06309454143047333 0.01369969826191664
v -0.03849464282393456 -0.06219086050987244 0.02051663585007191
v -0.03849464282393456 -0.06213638558983803 0.01351684890687466
v -0.03849463537335396 -0.02661236748099327 0.02029352076351643
v -0.03849463537335396 -0.02656567096710205 0.01429370418190956
v -0.03849463537335396 -0.02653922699391842 0.02067678608000278
v -0.03849463537335396 -0.02648228779435158 0.02079454995691776
v -0.03849463537335396 -0.02642780914902687 0.01379476208239794
v -0.03799463808536530 -0.02255800925195217 0.01332486420869827
v -0.03799463808536530 -0.02217593230307102 0.01340396050363779
v -0.03799463808536530 -0.02185320481657982 0.01362325251102448
v -0.03799463808536530 -0.02163896337151527 0.01394935231655836
v -0.03799463808536530 -0.02159695327281952 0.01833249628543854
v -0.03799463808536530 -0.02156582288444042 0.01433261670172215
v -0.03799463808536530 -0.02152381464838982 0.01871575973927975
v -0.03799463808536530 -0.02130957320332527 0.01904186047613621
v -0.03799463808536530 -0.02098684571683407 0.01926115155220032
v -0.03799463808536530 -0.02060476690530777 0.01934024877846241
v -0.03799463808536530 -0.01760485582053661 0.01936359517276287
v -0.03799463808536530 -0.01722159236669540 0.01929045654833317
v -0.03799463808536530 -0.01689549349248409 0.01907621510326862
v -0.03799463808536530 -0.01667620241641998 0.01875348761677742
v -0.03799463808536530 -0.01659710519015789 0.01837140880525112
v -0.03799463808536530 -0.01656597480177879 0.01437152922153473
v -0.03799463808536530 -0.01642811298370361 0.01387258712202311
v -0.03799463808536530 -0.01605924963951111 0.01350942160934210
v -0.03799463808536530 -0.01555822230875492 0.01337934285402298
v -0.03679463639855385 -0.02661236748099327 0.02029352076351643
v -0.03679463639855385 -0.02656567096710205 0.01429370418190956
v -0.03679463639855385 -0.02653922699391842 0.02067678608000278
v -0.03679463639855385 -0.02648657560348511 0.01391162443906069
v -0.03679463639855385 -0.02642780914902687 0.01379476208239794
v -0.03679463639855385 -0.02632498554885387 0.02100288681685925
v -0.03679463639855385 -0.02626728452742100 0.01358889788389206
v -0.03679463639855385 -0.02605894766747952 0.01343159563839436
v -0.03679463639855385 -0.02600225992500782 0.02122217789292336
v -0.03679463639855385 -0.02594118379056454 0.01337465643882751
v -0.03679463639855385 -0.02562017925083637 0.02130127511918545
v -0.03679463639855385 -0.02555791847407818 0.01330151688307524
v -0.03679463639855385 -0.02255800925195217 0.01332486420869827
v -0.03679463639855385 -0.02217593230307102 0.01340396050363779
v -0.03679463639855385 -0.02185320481657982 0.01362325251102448
v -0.03679463639855385 -0.02163896337151527 0.01394935231655836
v -0.03679463639855385 -0.02159695327281952 0.01833249628543854
v -0.03679463639855385 -0.02156582288444042 0.01433261670172215
v -0.03679463639855385 -0.02152381464838982 0.01871575973927975
v -0.03679463639855385 -0.02130957320332527 0.01904186047613621
v -0.03679463639855385 -0.02098684571683407 0.01926115155220032
v -0.03679463639855385 -0.02060476690530777 0.01934024877846241
v -0.03679463639855385 -0.01760485582053661 0.01936359517276287
v -0.03679463639855385 -0.01721941120922565 0.01928956806659698
v -0.03679463639855385 -0.01689214259386063 0.01907290145754814
v -0.03679463639855385 -0.01667346805334091 0.01874696835875511
v -0.03679463639855385 -0.01659710519015789 0.01837140880525112
v -0.03679463639855385 -0.01656597480177879 0.01437152922153473
v -0.03679463639855385 -0.01642811298370361 0.01387258712202311
v -0.03679463639855385 -0.01605925150215626 0.01350942160934210
v -0.03679463639855385 -0.01555822230875492 0.01337934285402298
v -0.03679463639855385 -0.01462051458656788 0.02138688229024410
v -0.03679463639855385 -0.01455825380980968 0.01338712498545647
v -0.03679463639855385 -0.01347072143107653 0.02116746269166470
v -0.03679463639855385 -0.01341201458126307 0.01362441387027502
v -0.03679463639855385 -0.01249241828918457 0.02052473835647106
v -0.03679463639855385 -0.01244383491575718 0.01428228709846735
v -0.03679463639855385 -0.01183454599231482 0.01955655962228775
v -0.03679463639855385 -0.01180111058056355 0.01526058930903673
v -0.03679463639855385 -0.01159725617617369 0.01841032132506371
v -0.03679463639855385 -0.01158169098198414 0.01641038060188293
v -0.03676963597536087 -0.02533905766904354 0.01730334013700485
v -0.03676963597536087 -0.02522796578705311 0.01782830990850925
v -0.03676963597536087 -0.02516672946512699 0.01667966321110725
v -0.03676963597536087 -0.02488904446363449 0.01827358081936836
v -0.03676963597536087 -0.02470565028488636 0.01622570678591728
v -0.03676963597536087 -0.02438980899751186 0.01852635852992535
v -0.03676963597536087 -0.02407936751842499 0.01606310717761517
v -0.03676963597536087 -0.02383030764758587 0.01853598654270172
v -0.03676963597536087 -0.02345568872988224 0.01623543351888657
v -0.03676963597536087 -0.02332266978919506 0.01830053701996803
v -0.03676963597536087 -0.02300173230469227 0.01669651456177235
v -0.03676963597536087 -0.02296862751245499 0.01786719076335430
v -0.03676963597536087 -0.02283913269639015 0.01732279732823372
v -0.03676963597536087 -0.01533936150372028 0.01738116517663002
v -0.03676963597536087 -0.01522826869040728 0.01790613681077957
v -0.03676963597536087 -0.01516703329980373 0.01675748825073242
v -0.03676963597536087 -0.01488934736698866 0.01835140585899353
v -0.03676963597536087 -0.01470595505088568 0.01630353182554245
v -0.03676963597536087 -0.01439011190086603 0.01860418356955051
v -0.03676963597536087 -0.01407966949045658 0.01614093221724033
v -0.03676963597536087 -0.01383061055094004 0.01861381158232689
v -0.03676963597536087 -0.01345599163323641 0.01631325855851173
v -0.03676963597536087 -0.01332297362387180 0.01837836205959320
v -0.03676963597536087 -0.01300203613936901 0.01677433960139751
v -0.03676963597536087 -0.01296893041580915 0.01794501766562462
v -0.03676963597536087 -0.01283943653106689 0.01740062236785889
v -0.03649463877081871 -0.02060710079967976 0.01964024081826210
v -0.03649463877081871 -0.01629711501300335 0.01837374456226826
v -0.03649463504552841 -0.02631237730383873 0.02029585652053356
v -0.03649463504552841 -0.02626568078994751 0.01429603900760412
v -0.03649463504552841 -0.02626117877662182 0.02056414261460304
v -0.03649463504552841 -0.02621031366288662 0.01402858272194862
v -0.03649463504552841 -0.02611120976507664 0.02079241350293159
v -0.03649463504552841 -0.02605680935084820 0.01380267366766930
v -0.03649463504552841 -0.02588530071079731 0.02094591408967972
v -0.03649463504552841 -0.02582853846251965 0.01365270558744669
v -0.03649463504552841 -0.02561784535646439 0.02100128307938576
v -0.03649463504552841 -0.02561404928565025 0.01730119995772839
v -0.03649463504552841 -0.02556025423109531 0.01360150706022978
v -0.03649463504552841 -0.02547851763665676 0.01794166304171085
v -0.03649463504552841 -0.02540380880236626 0.01654031313955784
v -0.03649463504552841 -0.02506503276526928 0.01848489232361317
v -0.03649463504552841 -0.02484129369258881 0.01598648540675640
v -0.03649463504552841 -0.02445596456527710 0.01879328303039074
v -0.03649463504552841 -0.02407722733914852 0.01578811556100845
v -0.03649463504552841 -0.02377337403595448 0.01880502887070179
v -0.03649463504552841 -0.02331634052097797 0.01599835418164730
v -0.03649463504552841 -0.02315405569970608 0.01851777918636799
v -0.03649463504552841 -0.02276251278817654 0.01656087115406990
v -0.03649463504552841 -0.02272212505340576 0.01798909902572632
v -0.03649463504552841 -0.02256414107978344 0.01732493750751019
v -0.03649463504552841 -0.02256034500896931 0.01362485438585281
v -0.03649463504552841 -0.02229288965463638 0.01368022337555885
v -0.03649463504552841 -0.02206698060035706 0.01383372582495213
v -0.03649463504552841 -0.02191701158881187 0.01406199671328068
v -0.03649463504552841 -0.02189694531261921 0.01833016052842140
v -0.03649463504552841 -0.02186581492424011 0.01433028187602758
v -0.03649463504552841 -0.02180186286568642 0.01882840506732464
v -0.03649463504552841 -0.02152334898710251 0.01925233565270901
v -0.03649463504552841 -0.02110380493104458 0.01953741349279881
v -0.03649463504552841 -0.01760719157755375 0.01966358721256256
v -0.03649463504552841 -0.01710611209273338 0.01956735178828239
v -0.03649463504552841 -0.01668066158890724 0.01928568258881569
v -0.03649463504552841 -0.01639638654887676 0.01886197179555893
v -0.03649463504552841 -0.01626598462462425 0.01437386404722929
v -0.03649463504552841 -0.01616948097944260 0.01402460504323244
v -0.03649463504552841 -0.01591127738356590 0.01377038843929768
v -0.03649463504552841 -0.01561435312032700 0.01737902499735355
v -0.03649463504552841 -0.01556055806577206 0.01367933303117752
v -0.03649463504552841 -0.01547881960868835 0.01801948994398117
v -0.03649463504552841 -0.01540411263704300 0.01661814004182816
v -0.03649463504552841 -0.01506533566862345 0.01856271736323833
v -0.03649463504552841 -0.01484159659594297 0.01606431044638157
v -0.03649463504552841 -0.01461817882955074 0.02108689211308956
v -0.03649463504552841 -0.01456058770418167 0.01368711516261101
v -0.03649463504552841 -0.01445626839995384 0.01887110807001591
v -0.03649463504552841 -0.01407752931118011 0.01586594060063362
v -0.03649463504552841 -0.01377367787063122 0.01888285577297211
v -0.03649463504552841 -0.01358336489647627 0.02088941447436810
v -0.03649463504552841 -0.01352897379547358 0.01390067581087351
v -0.03649463504552841 -0.01331664342433214 0.01607617922127247
v -0.03649463504552841 -0.01315435767173767 0.01859560422599316
v -0.03649463504552841 -0.01276281476020813 0.01663869619369507
v -0.03649463504552841 -0.01272242702543736 0.01806692406535149
v -0.03649463504552841 -0.01270289346575737 0.02031096257269382
v -0.03649463504552841 -0.01265761163085699 0.01449276134371758
v -0.03649463504552841 -0.01256444491446018 0.01740276254713535
v -0.03649463504552841 -0.01211080700159073 0.01943960040807724
v -0.03649463504552841 -0.01207915972918272 0.01537323277443647
v -0.03649463504552841 -0.01189724635332823 0.01840798556804657
v -0.03649463504552841 -0.01188168115913868 0.01640804670751095
f 28 170 143
f 111 112 109
f 280 442 274
f 458 600 460
f 81 109 112
f 110 28 143
f 261 81 112
f 261 233 81
f 598 600 458
f 131 454 132
f 131 452 454
f 131 130 452
f 520 454 452
f 108 111 109
f 108 1 43
f 136 458 460
f 464 275 462
f 456 596 598
f 456 598 458
f 456 133 132
f 456 132 454
f 55 1 108
f 55 108 109
f 29 170 28
f 29 28 1
f 54 81 233
f 54 109 81
f 54 29 1
f 54 55 109
f 54 1 55
f 3 1 28
f 3 28 110
f 171 54 233
f 171 170 29
f 171 29 54
f 436 170 171
f 436 143 170
f 496 455 644
f 496 453 455
f 642 539 537
f 684 598 596
f 684 690 600
f 684 600 598
f 605 280 604
f 517 448 451
f 518 537 520
f 518 449 516
f 518 450 449
f 518 520 452
f 518 452 450
f 514 531 516
f 533 516 531
f 447 516 449
f 447 449 273
f 447 514 516
f 140 434 433
f 42 108 43
f 42 1 6
f 42 43 1
f 269 460 462
f 117 119 114
f 134 133 456
f 134 456 458
f 134 108 133
f 134 111 108
f 279 275 464
f 279 269 275
f 279 464 604
f 279 604 280
f 128 280 274
f 128 279 280
f 262 261 112
f 262 112 114
f 492 453 496
f 232 171 233
f 540 644 538
f 540 496 644
f 540 538 492
f 540 492 496
f 641 538 644
f 440 274 442
f 575 456 454
f 575 596 456
f 640 537 638
f 640 642 537
f 679 684 596
f 679 596 575
f 679 575 642
f 693 604 602
f 693 695 604
f 693 602 600
f 693 600 690
f 696 604 695
f 696 605 604
f 532 635 634
f 532 634 531
f 536 641 639
f 536 538 641
f 536 639 637
f 535 518 516
f 535 516 533
f 535 537 518
f 535 638 537
f 636 531 634
f 636 533 531
f 636 638 535
f 636 535 533
f 267 273 449
f 267 449 450
f 116 130 131
f 277 447 273
f 141 435 434
f 141 434 140
f 102 42 6
f 102 108 42
f 102 133 108
f 102 132 133
f 102 6 132
f 266 136 460
f 266 460 269
f 266 269 279
f 266 128 136
f 266 279 128
f 271 462 275
f 271 275 269
f 271 269 462
f 135 458 136
f 135 134 458
f 115 111 134
f 115 117 114
f 115 135 117
f 115 134 135
f 115 112 111
f 115 114 112
f 124 264 119
f 124 128 264
f 268 274 440
f 263 119 264
f 263 114 119
f 263 262 114
f 522 539 642
f 522 642 575
f 522 575 454
f 522 454 520
f 522 537 539
f 522 520 537
f 657 577 680
f 576 644 455
f 576 455 577
f 519 517 451
f 519 451 536
f 488 536 451
f 488 451 453
f 488 453 492
f 534 515 517
f 534 532 515
f 534 517 519
f 534 519 536
f 534 536 637
f 534 637 635
f 534 635 532
f 129 130 125
f 129 452 130
f 129 450 452
f 129 267 450
f 129 273 267
f 120 130 116
f 120 116 118
f 2 3 110
f 2 116 131
f 2 6 1
f 2 1 3
f 2 132 6
f 2 131 132
f 443 514 447
f 443 447 277
f 276 277 273
f 276 433 432
f 276 272 433
f 445 277 432
f 113 110 143
f 113 118 116
f 113 2 110
f 113 116 2
f 142 435 141
f 142 436 435
f 142 143 436
f 142 113 143
f 142 141 118
f 142 118 113
f 122 118 141
f 122 120 118
f 123 117 135
f 123 136 128
f 123 128 124
f 123 119 117
f 123 124 119
f 265 264 128
f 265 128 274
f 265 274 268
f 603 696 694
f 603 605 696
f 467 442 280
f 467 280 605
f 438 263 264
f 438 262 263
f 270 140 433
f 270 433 272
f 270 122 140
f 270 129 122
f 270 273 129
f 270 276 273
f 270 272 276
f 121 125 130
f 121 130 120
f 121 120 122
f 121 129 125
f 121 122 129
f 278 432 277
f 278 276 432
f 278 277 276
f 444 277 445
f 127 141 140
f 127 140 122
f 127 122 141
f 126 135 136
f 126 136 123
f 126 123 135
f 439 440 463
f 439 268 440
f 439 265 268
f 439 264 265
f 439 438 264
f 437 261 262
f 437 262 438
f 437 233 261
f 437 232 233
f 437 436 171
f 437 171 232
f 685 680 599
f 685 599 691
f 601 694 691
f 601 603 694
f 601 691 599
f 457 459 599
f 457 577 455
f 457 437 438
f 457 438 459
f 461 439 463
f 597 599 680
f 597 457 599
f 597 680 577
f 597 577 457
f 602 462 460
f 602 460 600
f 464 462 602
f 464 602 604
f 434 451 448
f 434 448 433
f 434 453 451
f 434 435 453
f 436 453 435
f 436 455 453
f 517 446 448
f 517 515 446
f 532 531 514
f 532 514 515
f 432 433 448
f 432 448 446
f 576 657 644
f 576 577 657
f 488 538 536
f 488 492 538
f 445 446 515
f 445 432 446
f 467 463 440
f 467 440 442
f 467 605 603
f 467 603 463
f 444 443 277
f 444 514 443
f 444 515 514
f 444 445 515
f 685 679 642
f 685 634 635
f 685 694 696
f 685 690 684
f 685 636 634
f 685 641 644
f 685 635 637
f 685 640 638
f 685 693 690
f 685 644 657
f 685 639 641
f 685 637 639
f 685 642 640
f 685 684 679
f 685 695 693
f 685 696 695
f 685 638 636
f 685 657 680
f 685 691 694
f 457 455 436
f 457 436 437
f 461 463 603
f 461 603 601
f 461 599 459
f 461 601 599
f 461 438 439
f 461 459 438

