# https://github.com/mikedh/trimesh
v -0.05049463361501694 0.01402681693434715 -0.01416552346199751
v -0.05049463361501694 0.01409025676548481 -0.02231666631996632
v -0.05049463361501694 0.01415583211928606 -0.01426547206938267
v -0.05049463361501694 0.01422677375376225 -0.01438658032566309
v -0.05049463361501694 0.01437078882008791 -0.01479509193450212
v -0.05049463361501694 0.01449793204665184 -0.01520010083913803
v -0.05049463361501694 0.01460601389408112 -0.01561511214822531
v -0.05049463361501694 0.01462818402796984 -0.02237094379961491
v -0.05049463361501694 0.01464919000864029 -0.01582539267838001
v -0.05049463361501694 0.01467184908688068 -0.01598470099270344
v -0.05049463361501694 0.01467586029320955 -0.01603827252984047
v -0.05049463361501694 0.01469400990754366 -0.01837030984461308
v -0.05049463361501694 0.01492069289088249 -0.01959985494613647
v -0.05049463361501694 0.01555423345416784 -0.02067771926522255
v -0.05049463361501694 0.01651821844279766 -0.02147389948368073
v -0.05049463361501694 0.01769637875258923 -0.02189235948026180
v -0.05049463361501694 0.01894660666584969 -0.02188262715935707
v -0.05049463361501694 0.02243017219007015 -0.01405180897563696
v -0.05049462988972664 0.02011810988187790 -0.02144587971270084
v -0.05049462988972664 0.02106958627700806 -0.02063479647040367
v -0.05049462988972664 0.02168627455830574 -0.01954720169305801
v -0.05049462988972664 0.02187564224004745 -0.01598223671317101
v -0.05049462988972664 0.02189379185438156 -0.01831427402794361
v -0.05049462988972664 0.02190191484987736 -0.01575093157589436
v -0.05049462988972664 0.02194640971720219 -0.01552295405417681
v -0.05049462988972664 0.02205968648195267 -0.01507244072854519
v -0.05049462988972664 0.02234740369021893 -0.01418779976665974
v -0.05049462988972664 0.02256209217011929 -0.01395768113434315
v -0.05049462988972664 0.02272053062915802 -0.01392361707985401
v -0.05049462988972664 0.02719254605472088 -0.01388881262391806
v -0.05049462988972664 0.02735149674117565 -0.01392040587961674
v -0.05049462988972664 0.02748486772179604 -0.01401246897876263
v -0.05049462988972664 0.02756974287331104 -0.01414715498685837
v -0.05049462988972664 0.02772817574441433 -0.01458443887531757
v -0.05049462988972664 0.02787102572619915 -0.01502648741006851
v -0.05049462988972664 0.02799133956432343 -0.01547559816390276
v -0.05049462988972664 0.02806937508285046 -0.01593403331935406
v -0.05049462988972664 0.02808752469718456 -0.01826607063412666
v -0.05049462988972664 0.02831420674920082 -0.01949561573565006
v -0.05049462988972664 0.02894774824380875 -0.02057348191738129
v -0.05049462988972664 0.02991173416376114 -0.02136965841054916
v -0.05049462988972664 0.03108989261090755 -0.02178811840713024
v -0.05049462988972664 0.03234012052416801 -0.02177838794887066
v -0.05049462988972664 0.03351162374019623 -0.02134164236485958
v -0.05049462988972664 0.03446310013532639 -0.02053055539727211
v -0.05049462988972664 0.03507978841662407 -0.01944296061992645
v -0.05049462988972664 0.03526915609836578 -0.01587799936532974
v -0.05049462988972664 0.03528730571269989 -0.01821003668010235
v -0.05049462988972664 0.03529543057084084 -0.01564669050276279
v -0.05049462988972664 0.03533992171287537 -0.01541871484369040
v -0.05049462988972664 0.03545320034027100 -0.01496820244938135
v -0.05049462988972664 0.03574091568589211 -0.01408355962485075
v -0.05049462988972664 0.03582368791103363 -0.01394756976515055
v -0.05049462988972664 0.03595560789108276 -0.01385344285517931
v -0.05049462988972664 0.03611404448747635 -0.01381937786936760
v -0.05049462988972664 0.04058606177568436 -0.01378457341343164
v -0.05049462988972664 0.04074501246213913 -0.01381616666913033
v -0.05049462988972664 0.04087838158011436 -0.01390822883695364
v -0.05049462988972664 0.04096325486898422 -0.01404291577637196
v -0.05049462988972664 0.04112168774008751 -0.01448019966483116
v -0.05049462988972664 0.04126454144716263 -0.01492224819958210
v -0.05049462988972664 0.04138485342264175 -0.01537135895341635
v -0.05049462988972664 0.04146289080381393 -0.01582979410886765
v -0.05049462988972664 0.04148104041814804 -0.01816183142364025
v -0.05049462988972664 0.04170772060751915 -0.01939137838780880
v -0.05049462988972664 0.04234126210212708 -0.02046924270689487
v -0.05049462988972664 0.04330524802207947 -0.02126542106270790
v -0.05049462988972664 0.04448340833187103 -0.02168388105928898
v -0.05049462988972664 0.04573363438248634 -0.02167415060102940
v -0.05049462988972664 0.04690513759851456 -0.02123740315437317
v -0.05049462988972664 0.04785661399364471 -0.02042631804943085
v -0.05049462988972664 0.04847330227494240 -0.01933872140944004
v -0.05049462988972664 0.04866266995668411 -0.01577376015484333
v -0.05049462988972664 0.04868081957101822 -0.01810579746961594
v -0.05049462988972664 0.04868894442915916 -0.01554245129227638
v -0.05049462988972664 0.04873343929648399 -0.01531447563320398
v -0.05049462988972664 0.04884671419858932 -0.01486396323889494
v -0.05049462988972664 0.04913443326950073 -0.01397932134568691
v -0.05049462988972664 0.05435677245259285 -0.01393867563456297
v -0.05049462616443634 0.04921720176935196 -0.01384332962334156
v -0.05049462616443634 0.04934912174940109 -0.01374920178204775
v -0.05049462616443634 0.04950755834579468 -0.01371513959020376
v -0.05049462616443634 0.05397957563400269 -0.01368033513426781
v -0.05049462616443634 0.05413852632045746 -0.01371192745864391
v -0.05049462616443634 0.05427189543843269 -0.01380398962646723
v -0.05049462616443634 0.05451520532369614 -0.01437596045434475
v -0.05049462616443634 0.05465805530548096 -0.01481800898909569
v -0.05049462616443634 0.05477836728096008 -0.01526712067425251
v -0.05049462616443634 0.05485640466213226 -0.01572555489838123
v -0.05049462616443634 0.05487455427646637 -0.01805759407579899
v -0.05049462616443634 0.05510123819112778 -0.01928713731467724
v -0.05049462616443634 0.05573477596044540 -0.02036500349640846
v -0.05049462616443634 0.05669876188039780 -0.02116118185222149
v -0.05049462616443634 0.05787692219018936 -0.02157963998615742
v -0.05049462616443634 0.05912714824080467 -0.02156990952789783
v -0.05049462616443634 0.06029865518212318 -0.02113316394388676
v -0.05049462616443634 0.06125013157725334 -0.02032207883894444
v -0.05049462616443634 0.06186681985855103 -0.01923448219895363
v -0.05049462616443634 0.06205618381500244 -0.01566952094435692
v -0.05049462616443634 0.06205938011407852 -0.01561567187309265
v -0.05049462616443634 0.06207433342933655 -0.01800155825912952
v -0.05049462616443634 0.06207957118749619 -0.01545606739819050
v -0.05049462616443634 0.06211937963962555 -0.01524553913623095
v -0.05049462616443634 0.06220242381095886 -0.02200068160891533
v -0.05049462616443634 0.06222090870141983 -0.01482921838760376
v -0.05049462616443634 0.06247951090335846 -0.01401103939861059
v -0.05049462616443634 0.06254855543375015 -0.01388883963227272
v -0.05049462616443634 0.06267600506544113 -0.01378689706325531
v -0.05049462616443634 0.06273943930864334 -0.02193803898990154
v -0.05049284547567368 0.06275785714387894 -0.01375427562743425
v -0.05049063265323639 0.01396148465573788 -0.02228992246091366
v -0.05048231035470963 0.01380583737045527 -0.01411527488380671
v -0.05046703666448593 0.01369541138410568 -0.01412697136402130
v -0.05046702921390533 0.06300676614046097 -0.01374319288879633
v -0.05046513676643372 0.01374633051455021 -0.02224896289408207
v -0.05043565854430199 0.06322111934423447 -0.02183968201279640
v -0.05040258541703224 0.01348955743014812 -0.02220900170505047
v -0.05040177702903748 0.06327836960554123 -0.01379095856100321
v -0.05033106729388237 0.01323487516492605 -0.01420571282505989
v -0.05027225613594055 0.06365496665239334 -0.02179084718227386
v -0.05022668465971947 0.01302720047533512 -0.01421867962926626
v -0.05022668465971947 0.01308919861912727 -0.02218458242714405
v -0.05022667720913887 0.06367632746696472 -0.01382448710501194
v -0.05022667720913887 0.06373832374811172 -0.02179039083421230
v -0.05011053755879402 0.01288802642375231 -0.02218558266758919
v -0.05011053010821342 0.06393948197364807 -0.02178825810551643
v -0.05005992949008942 0.01273847930133343 -0.01423333957791328
v -0.05005992576479912 0.06396523863077164 -0.01383465155959129
v -0.04999463260173798 0.01268718671053648 -0.02217485941946507
v -0.04999463260173798 0.01348228100687265 -0.02265150845050812
v -0.04999463260173798 0.01359187625348568 -0.02269343286752701
v -0.04999463260173798 0.01463207416236401 -0.02287092804908752
v -0.04999462515115738 0.06220631301403046 -0.02250066772103310
v -0.04999462515115738 0.06324362009763718 -0.02230700105428696
v -0.04999462515115738 0.06335255503654480 -0.02226337790489197
v -0.04999462515115738 0.06414013355970383 -0.02177441120147705
v -0.04989463463425636 0.01478966884315014 -0.01417886372655630
v -0.04989463463425636 0.02140846475958824 -0.01518784742802382
v -0.04989463463425636 0.02178304269909859 -0.01398408971726894
v -0.04989463463425636 0.02813086099922657 -0.01393468677997589
v -0.04989463090896606 0.01245248131453991 -0.01427355129271746
v -0.04989463090896606 0.01293405983597040 -0.01387992873787880
v -0.04989463090896606 0.01341202482581139 -0.01362441387027502
v -0.04989463090896606 0.01348645519465208 -0.01359407231211662
v -0.04989463090896606 0.01383053883910179 -0.01352527923882008
v -0.04989463090896606 0.01426090765744448 -0.01361270528286695
v -0.04989463090896606 0.01461231987923384 -0.01387608796358109
v -0.04989463090896606 0.01514646690338850 -0.01529741194099188
v -0.04989463090896606 0.01527584064751863 -0.01603360287845135
v -0.04989463090896606 0.01529399212449789 -0.01836564019322395
v -0.04989463090896606 0.01548289321362972 -0.01939026266336441
v -0.04989463090896606 0.01553128194063902 -0.01951187849044800
v -0.04989463090896606 0.01601084321737289 -0.02028848230838776
v -0.04989463090896606 0.01618915423750877 -0.02048005908727646
v -0.04989463090896606 0.01681416667997837 -0.02095196396112442
v -0.04989463090896606 0.01716745458543301 -0.02112278155982494
v -0.04989463090896606 0.01779596507549286 -0.02130068093538284
v -0.04989463090896606 0.01831724867224693 -0.02134220115840435
v -0.04989463090896606 0.01883782260119915 -0.02129257097840309
v -0.04989463090896606 0.01946348696947098 -0.02110491320490837
v -0.04989463090896606 0.01981407403945923 -0.02092861570417881
v -0.04989463090896606 0.02043166570365429 -0.02044703811407089
v -0.04989463090896606 0.02060697227716446 -0.02025271207094193
v -0.04989463090896606 0.02107439003884792 -0.01946873776614666
v -0.04989463090896606 0.02112087979912758 -0.01934638246893883
v -0.04989463090896606 0.02127566002309322 -0.01598690636456013
v -0.04989463090896606 0.02129380963742733 -0.01831894367933273
v -0.04989463090896606 0.02198996208608150 -0.01364411227405071
v -0.04989463090896606 0.02231976389884949 -0.01340879313647747
v -0.04989463090896606 0.02271586097776890 -0.01332363579422235
v -0.04989463090896606 0.02718787640333176 -0.01328883040696383
v -0.04989463090896606 0.02758525311946869 -0.01336781308054924
v -0.04989463090896606 0.02791867777705193 -0.01359797082841396
v -0.04989463090896606 0.02844552882015705 -0.01485425792634487
v -0.04989463090896606 0.02852413058280945 -0.01513246819376945
v -0.04989463090896606 0.02866935543715954 -0.01592936366796494
v -0.04989463090896606 0.02868750691413879 -0.01826140098273754
v -0.04989463090896606 0.02887640893459320 -0.01928602159023285
v -0.04989463090896606 0.02892479486763477 -0.01940763927996159
v -0.04989463090896606 0.02940435893833637 -0.02018424309790134
v -0.04989463090896606 0.02958266809582710 -0.02037581801414490
v -0.04989463090896606 0.03020768053829670 -0.02084772475063801
v -0.04989463090896606 0.03056097030639648 -0.02101854234933853
v -0.04989463090896606 0.03118947893381119 -0.02119644172489643
v -0.04989463090896606 0.03171076253056526 -0.02123796194791794
v -0.04989463090896606 0.03223133832216263 -0.02118833363056183
v -0.04989463090896606 0.03285700082778931 -0.02100067213177681
v -0.04989463090896606 0.03320758789777756 -0.02082437649369240
v -0.04989463090896606 0.03382518142461777 -0.02034280076622963
v -0.04989463090896606 0.03400048613548279 -0.02014847286045551
v -0.04989463090896606 0.03446790575981140 -0.01936449855566025
v -0.04989463090896606 0.03451439365744591 -0.01924214325845242
v -0.04989463090896606 0.03466917574405670 -0.01588266901671886
v -0.04989463090896606 0.03468732535839081 -0.01821470633149147
v -0.04989463090896606 0.03480197861790657 -0.01508360821753740
v -0.04989463090896606 0.03487601131200790 -0.01480502355843782
v -0.04989463090896606 0.03517655655741692 -0.01387985050678253
v -0.04989463090896606 0.03538347780704498 -0.01353987306356430
v -0.04989463090896606 0.03571327775716782 -0.01330455392599106
v -0.04989463090896606 0.03610937669873238 -0.01321939658373594
v -0.04989463090896606 0.04058139026165009 -0.01318459119647741
v -0.04989463090896606 0.04097876697778702 -0.01326357387006283
v -0.04989463090896606 0.04131219163537025 -0.01349373068660498
v -0.04989463090896606 0.04152437672019005 -0.01383044663816690
v -0.04989463090896606 0.04183904454112053 -0.01475001871585846
v -0.04989463090896606 0.04819549247622490 -0.01497936993837357
v -0.04989463090896606 0.04857007041573524 -0.01377561222761869
v -0.04989463090896606 0.05491789057850838 -0.01372620835900307
v -0.04989463090896606 0.05523255839943886 -0.01464577857404947
v -0.04989463090896606 0.06157410517334938 -0.01493607461452484
v -0.04989463090896606 0.06191344931721687 -0.01381210889667273
v -0.04989462718367577 0.04191764444112778 -0.01502822898328304
v -0.04989462718367577 0.04206287115812302 -0.01582512445747852
v -0.04989462718367577 0.04208102077245712 -0.01815716177225113
v -0.04989462718367577 0.04226992279291153 -0.01918178424239159
v -0.04989462718367577 0.04231831058859825 -0.01930340193212032
v -0.04989462718367577 0.04279787465929985 -0.02008000575006008
v -0.04989462718367577 0.04297618195414543 -0.02027157880365849
v -0.04989462718367577 0.04360119625926018 -0.02074348554015160
v -0.04989462718367577 0.04395448416471481 -0.02091430500149727
v -0.04989462718367577 0.04458299279212952 -0.02109220251441002
v -0.04989462718367577 0.04510427638888359 -0.02113372460007668
v -0.04989462718367577 0.04562485218048096 -0.02108409255743027
v -0.04989462718367577 0.04625051468610764 -0.02089643478393555
v -0.04989462718367577 0.04660110548138618 -0.02072013914585114
v -0.04989462718367577 0.04721869528293610 -0.02023855969309807
v -0.04989462718367577 0.04739399999380112 -0.02004423364996910
v -0.04989462718367577 0.04786141961812973 -0.01926025934517384
v -0.04989462718367577 0.04790790751576424 -0.01913790404796600
v -0.04989462718367577 0.04806268960237503 -0.01577842980623245
v -0.04989462718367577 0.04808083921670914 -0.01811046712100506
v -0.04989462718367577 0.04826952517032623 -0.01470078434795141
v -0.04989462718367577 0.04877699166536331 -0.01343563292175531
v -0.04989462718367577 0.04910679161548615 -0.01320031471550465
v -0.04989462718367577 0.04950289055705070 -0.01311515737324953
v -0.04989462718367577 0.05397490411996841 -0.01308035291731358
v -0.04989462718367577 0.05437228083610535 -0.01315933465957642
v -0.04989462718367577 0.05470570549368858 -0.01338949147611856
v -0.04989462718367577 0.05531116202473640 -0.01492398977279663
v -0.04989462718367577 0.05545638501644135 -0.01572088710963726
v -0.04989462718367577 0.05547453463077545 -0.01805292442440987
v -0.04989462718367577 0.05566343665122986 -0.01907754503190517
v -0.04989462718367577 0.05571182444691658 -0.01919916085898876
v -0.04989462718367577 0.05619138851761818 -0.01997576467692852
v -0.04989462718367577 0.05636969581246376 -0.02016734145581722
v -0.04989462718367577 0.05699471011757851 -0.02063924632966518
v -0.04989462718367577 0.05734799802303314 -0.02081006392836571
v -0.04989462718367577 0.05797650665044785 -0.02098796330392361
v -0.04989462718367577 0.05849779024720192 -0.02102948352694511
v -0.04989462718367577 0.05901836603879929 -0.02097985520958900
v -0.04989462718367577 0.05964403226971626 -0.02079219371080399
v -0.04989462718367577 0.05999461933970451 -0.02061589807271957
v -0.04989462718367577 0.06061220914125443 -0.02013432234525681
v -0.04989462718367577 0.06078751757740974 -0.01993999443948269
v -0.04989462718367577 0.06125493347644806 -0.01915602199733257
v -0.04989462718367577 0.06130142137408257 -0.01903366483747959
v -0.04989462718367577 0.06145620346069336 -0.01567418873310089
v -0.04989462718367577 0.06147435307502747 -0.01800622791051865
v -0.04989462718367577 0.06164251267910004 -0.01467045675963163
v -0.04989462718367577 0.06208606436848640 -0.01350660901516676
v -0.04989462718367577 0.06243333593010902 -0.01323778741061687
v -0.04989462718367577 0.06286229193210602 -0.01314367447048426
v -0.04989462718367577 0.06320740282535553 -0.01320710405707359
v -0.04989462718367577 0.06376418471336365 -0.01348432805389166
v -0.04989462718367577 0.06425182521343231 -0.01387040782719851
v -0.04989140480756760 0.01250711642205715 -0.02201186493039131
v -0.04988960921764374 0.01244384516030550 -0.01428228709846735
v -0.04988960176706314 0.06432072818279266 -0.02160550467669964
v -0.04961983859539032 0.01203203201293945 -0.02140745148062706
v -0.04955736175179482 0.06484231352806091 -0.01468151900917292
v -0.04951512441039085 0.01184783037751913 -0.02104466781020164
v -0.04951462149620056 0.06491761654615402 -0.01484517846256495
v -0.04951414838433266 0.01180112175643444 -0.01526058930903673
v -0.04951414093375206 0.06496345251798630 -0.02062720246613026
v -0.04941244795918465 0.01166536752134562 -0.02045122720301151
v -0.04939347878098488 0.06513374298810959 -0.01565324328839779
v -0.04938230291008949 0.01158170215785503 -0.01641038060188293
v -0.04938230291008949 0.01160881761461496 -0.01989436708390713
v -0.04938229545950890 0.06515575945377350 -0.01599342562258244
v -0.04938229545950890 0.06518287211656570 -0.01947741024196148
v -0.04474570974707603 0.01408940833061934 -0.01739089377224445
v -0.04474570602178574 0.02408910542726517 -0.01731306873261929
v -0.04449463263154030 0.01348645426332951 -0.01359407231211662
v -0.04449463263154030 0.01387555897235870 -0.01352534908801317
v -0.04449463263154030 0.01426090672612190 -0.01361270528286695
v -0.04449463263154030 0.01455826405435801 -0.01338712498545647
v -0.04449463263154030 0.01458233874291182 -0.01384250260889530
v -0.04449463263154030 0.01478966791182756 -0.01417886372655630
v -0.04449463263154030 0.01514646597206593 -0.01529741194099188
v -0.04449463263154030 0.01527584064751863 -0.01603360287845135
v -0.04449463263154030 0.01529399119317532 -0.01836564019322395
v -0.04449463263154030 0.01553128100931644 -0.01951187849044800
v -0.04449463263154030 0.01618915237486362 -0.02048005908727646
v -0.04449463263154030 0.01716745458543301 -0.02112278155982494
v -0.04449463263154030 0.01831724680960178 -0.02134220115840435
v -0.04449463263154030 0.01946348510682583 -0.02110491320490837
v -0.04449463263154030 0.02043166570365429 -0.02044703811407089
v -0.04449463263154030 0.02107439003884792 -0.01946873776614666
v -0.04449463263154030 0.02127566002309322 -0.01598690636456013
v -0.04449463263154030 0.02129380963742733 -0.01831894367933273
v -0.04449463263154030 0.02140846289694309 -0.01518784742802382
v -0.04449463263154030 0.02178304269909859 -0.01398408971726894
v -0.04449463263154030 0.02199327759444714 -0.01364054903388023
v -0.04449463263154030 0.02232199162244797 -0.01340781338512897
v -0.04449463263154030 0.02271585911512375 -0.01332363579422235
v -0.04449463263154030 0.02718787640333176 -0.01328883040696383
v -0.04449463263154030 0.02758525125682354 -0.01336781308054924
v -0.04449463263154030 0.02791867591440678 -0.01359796989709139
v -0.04449463263154030 0.02813086099922657 -0.01393468677997589
v -0.04449463263154030 0.02852413058280945 -0.01513246819376945
v -0.04449463263154030 0.02866935543715954 -0.01592936366796494
v -0.04449463263154030 0.02868750505149364 -0.01826140098273754
v -0.04449463263154030 0.02892479486763477 -0.01940763927996159
v -0.04449463263154030 0.02958266809582710 -0.02037581801414490
v -0.04449463263154030 0.03056097030639648 -0.02101854234933853
v -0.04449462890625000 0.03171076253056526 -0.02123796194791794
v -0.04449462890625000 0.03285700082778931 -0.02100067213177681
v -0.04449462890625000 0.03382518142461777 -0.02034280076622963
v -0.04449462890625000 0.03446790575981140 -0.01936449855566025
v -0.04449462890625000 0.03466917574405670 -0.01588266901671886
v -0.04449462890625000 0.03468732535839081 -0.01821470633149147
v -0.04449462890625000 0.03480197861790657 -0.01508360821753740
v -0.04449462890625000 0.03517655655741692 -0.01387985050678253
v -0.04449462890625000 0.03538347408175468 -0.01353987306356430
v -0.04449462890625000 0.03571327775716782 -0.01330455392599106
v -0.04449462890625000 0.03610937297344208 -0.01321939658373594
v -0.04449462890625000 0.04058139026165009 -0.01318459119647741
v -0.04449462890625000 0.04097652435302734 -0.01326262857764959
v -0.04449462890625000 0.04130882024765015 -0.01349022053182125
v -0.04449462890625000 0.04152437672019005 -0.01383044756948948
v -0.04449462890625000 0.04191764444112778 -0.01502822898328304
v -0.04449462890625000 0.04206287115812302 -0.01582512445747852
v -0.04449462890625000 0.04208102077245712 -0.01815716177225113
v -0.04449462890625000 0.04231831058859825 -0.01930340193212032
v -0.04449462890625000 0.04297618195414543 -0.02027157880365849
v -0.04449462890625000 0.04395448416471481 -0.02091430500149727
v -0.04449462890625000 0.04510427638888359 -0.02113372460007668
v -0.04449462890625000 0.04625051468610764 -0.02089643478393555
v -0.04449462890625000 0.04721869528293610 -0.02023855969309807
v -0.04449462890625000 0.04786141961812973 -0.01926025934517384
v -0.04449462890625000 0.04806268960237503 -0.01577842980623245
v -0.04449462890625000 0.04808083921670914 -0.01811046712100506
v -0.04449462890625000 0.04819549247622490 -0.01497936993837357
v -0.04449462890625000 0.04857007041573524 -0.01377561222761869
v -0.04449462890625000 0.04878030717372894 -0.01343207061290741
v -0.04449462890625000 0.04910901933908463 -0.01319933496415615
v -0.04449462890625000 0.04950289055705070 -0.01311515737324953
v -0.04449462890625000 0.05397490411996841 -0.01308035291731358
v -0.04449462890625000 0.05437003821134567 -0.01315838936716318
v -0.04449462890625000 0.05470233410596848 -0.01338598132133484
v -0.04449462890625000 0.05491789057850838 -0.01372620835900307
v -0.04449462890625000 0.05531115829944611 -0.01492398977279663
v -0.04449462890625000 0.05545638501644135 -0.01572088710963726
v -0.04449462890625000 0.05547453463077545 -0.01805292442440987
v -0.04449462890625000 0.05571182444691658 -0.01919916085898876
v -0.04449462890625000 0.05636969581246376 -0.02016734145581722
v -0.04449462890625000 0.05734799802303314 -0.02081006392836571
v -0.04449462890625000 0.05849779024720192 -0.02102948352694511
v -0.04449462890625000 0.05964403226971626 -0.02079219371080399
v -0.04449462518095970 0.06061220914125443 -0.02013432234525681
v -0.04449462518095970 0.06125493347644806 -0.01915602199733257
v -0.04449462518095970 0.06145620346069336 -0.01567418873310089
v -0.04449462518095970 0.06147435307502747 -0.01800622791051865
v -0.04449462518095970 0.06157410517334938 -0.01493607461452484
v -0.04449462518095970 0.06191344931721687 -0.01381210889667273
v -0.04449462518095970 0.06211551651358604 -0.01347256079316139
v -0.04449462518095970 0.06213250383734703 -0.01301686372607946
v -0.04449462518095970 0.06243333220481873 -0.01323778834193945
v -0.04449462518095970 0.06281727552413940 -0.01314444560557604
v -0.04449462518095970 0.06320740282535553 -0.01320710405707359
v -0.04399463161826134 0.01283944677561522 -0.01740062236785889
v -0.04399463161826134 0.01295053679496050 -0.01687565445899963
v -0.04399463161826134 0.01296745147556067 -0.01794199831783772
v -0.04399463161826134 0.01300204638391733 -0.01677433960139751
v -0.04399463161826134 0.01328945904970169 -0.01643038354814053
v -0.04399463161826134 0.01331767439842224 -0.01837421953678131
v -0.04399463161826134 0.01345600187778473 -0.01631325855851173
v -0.04399463161826134 0.01378869637846947 -0.01617760397493839
v -0.04399463161826134 0.01382074970752001 -0.01861168257892132
v -0.04399463161826134 0.01407967973500490 -0.01614093221724033
v -0.04399463161826134 0.01434819586575031 -0.01616797596216202
v -0.04399463161826134 0.01437703613191843 -0.01860735379159451
v -0.04399463161826134 0.01470596529543400 -0.01630353182554245
v -0.04399463161826134 0.01485583465546370 -0.01640342734754086
v -0.04399463161826134 0.01487635262310505 -0.01836208812892437
v -0.04399463161826134 0.01516704354435205 -0.01675748825073242
v -0.04399463161826134 0.01520987693220377 -0.01683677174150944
v -0.04399463161826134 0.01521980669349432 -0.01792446896433830
v -0.04399463161826134 0.01533937174826860 -0.01738116517663002
v -0.04399463161826134 0.02283914387226105 -0.01732279732823372
v -0.04399463161826134 0.02295023575425148 -0.01679782755672932
v -0.04399463161826134 0.02296863682568073 -0.01786719076335430
v -0.04399463161826134 0.02300174161791801 -0.01669651269912720
v -0.04399463161826134 0.02328915707767010 -0.01635255664587021
v -0.04399463161826134 0.02332267910242081 -0.01830053701996803
v -0.04399463161826134 0.02345569990575314 -0.01623543351888657
v -0.04399463161826134 0.02378839254379272 -0.01609977893531322
v -0.04399463161826134 0.02383031696081161 -0.01853598654270172
v -0.04399463161826134 0.02407937683165073 -0.01606310717761517
v -0.04399463161826134 0.02434789389371872 -0.01609015092253685
v -0.04399463161826134 0.02438981831073761 -0.01852635852992535
v -0.04399463161826134 0.02470566146075726 -0.01622570678591728
v -0.04399463161826134 0.02485553175210953 -0.01632560230791569
v -0.04399463161826134 0.02488905377686024 -0.01827358081936836
v -0.04399463161826134 0.02516674064099789 -0.01667966321110725
v -0.04399463161826134 0.02520957402884960 -0.01675894670188427
v -0.04399463161826134 0.02522797696292400 -0.01782831177115440
v -0.04399463161826134 0.02533906698226929 -0.01730334013700485
v -0.04299463331699371 0.01206210535019636 -0.01389065757393837
v -0.04299463331699371 0.01206878107041121 -0.01474822871387005
v -0.04299463331699371 0.01224495656788349 -0.01293249614536762
v -0.04299463331699371 0.01244384422898293 -0.01428228709846735
v -0.04299463331699371 0.01278055831789970 -0.01211724430322647
v -0.04299463331699371 0.01341202389448881 -0.01362441387027502
v -0.04299463331699371 0.01358737424015999 -0.01156901754438877
v -0.04299463331699371 0.01454257406294346 -0.01137127634137869
v -0.04299463331699371 0.01455826405435801 -0.01338712498545647
v -0.04299462586641312 0.06211681291460991 -0.01100101601332426
v -0.04299462586641312 0.06213250383734703 -0.01301686372607946
v -0.04299462586641312 0.06307497620582581 -0.01118386536836624
v -0.04299462586641312 0.06328229606151581 -0.01323628332465887
v -0.04299462586641312 0.06389022618532181 -0.01171946804970503
v -0.04299462586641312 0.06426059454679489 -0.01387900765985250
v -0.04299462586641312 0.06443845480680466 -0.01252628490328789
v -0.04299462586641312 0.06463619321584702 -0.01348148286342621
v -0.04299462586641312 0.06464286893606186 -0.01433905400335789
v -0.04272665083408356 0.01180470921099186 -0.01525177340954542
v -0.04272298887372017 0.06491847336292267 -0.01484718639403582
v -0.04262338206171989 0.01170368120074272 -0.01553996652364731
v -0.04255226999521255 0.06509356200695038 -0.01540862116962671
v -0.04249463230371475 0.01156212110072374 -0.01389454770833254
v -0.04249463230371475 0.01158170122653246 -0.01641038060188293
v -0.04249463230371475 0.01178154163062572 -0.01274475641548634
v -0.04249463230371475 0.01242426503449678 -0.01176645420491695
v -0.04249463230371475 0.01339244470000267 -0.01110858097672462
v -0.04249463230371475 0.01453868206590414 -0.01087129116058350
v -0.04249462485313416 0.06211292371153831 -0.01050103083252907
v -0.04249462485313416 0.06326271593570709 -0.01072045043110847
v -0.04249462485313416 0.06424101442098618 -0.01136317383497953
v -0.04249462485313416 0.06489888578653336 -0.01233135350048542
v -0.04249462485313416 0.06513617932796478 -0.01347759179770947
v -0.04249462485313416 0.06515575945377350 -0.01599342562258244
v -0.04049463197588921 0.01156212110072374 -0.01389454770833254
v -0.04049463197588921 0.01158170122653246 -0.01641038060188293
v -0.04049463197588921 0.01159726642072201 -0.01841032132506371
v -0.04049463197588921 0.01160881668329239 -0.01989436708390713
v -0.04049463197588921 0.01178154069930315 -0.01274475641548634
v -0.04049463197588921 0.01184610649943352 -0.02104060538113117
v -0.04049463197588921 0.01242426503449678 -0.01176645420491695
v -0.04049463197588921 0.01250397786498070 -0.02200878411531448
v -0.04049463197588921 0.01339244376868010 -0.01110858097672462
v -0.04049463197588921 0.01348228007555008 -0.02265150845050812
v -0.04049463197588921 0.01453868206590414 -0.01087129116058350
v -0.04049463197588921 0.01463207229971886 -0.02287092804908752
v -0.04049462452530861 0.06211292371153831 -0.01050103083252907
v -0.04049462452530861 0.06220631301403046 -0.02250066772103310
v -0.04049462452530861 0.06326271593570709 -0.01072045043110847
v -0.04049462452530861 0.06335905939340591 -0.02226061373949051
v -0.04049462452530861 0.06424101442098618 -0.01136317383497953
v -0.04049462452530861 0.06432072818279266 -0.02160550467669964
v -0.04049462452530861 0.06433062255382538 -0.02159540541470051
v -0.04049462452530861 0.06489888578653336 -0.01233135350048542
v -0.04049462452530861 0.06497135013341904 -0.02060751989483833
v -0.04049462452530861 0.06513617932796478 -0.01347759179770947
v -0.04049462452530861 0.06515575945377350 -0.01599342562258244
v -0.04049462452530861 0.06517132371664047 -0.01799336448311806
v -0.04049462452530861 0.06518287211656570 -0.01947741024196148
v -0.04043698683381081 0.01163478847593069 -0.01582467928528786
v -0.04043698683381081 0.01165946293622255 -0.01899512484669685
v -0.04043698310852051 0.06509356200695038 -0.01540862116962671
v -0.04043698310852051 0.06511823832988739 -0.01857906579971313
v -0.04026627168059349 0.01180112082511187 -0.01526058930903673
v -0.04026626423001289 0.06491847336292267 -0.01484718639403582
v -0.04026626423001289 0.06495190411806107 -0.01914315670728683
v -0.04026221856474876 0.01183868199586868 -0.01956626027822495
v -0.04010182991623878 0.01200160756707191 -0.01989131048321724
v -0.04010182246565819 0.06479008495807648 -0.01948046498000622
v -0.04004826024174690 0.01205759681761265 -0.01998401619493961
v -0.04004825651645660 0.06473553925752640 -0.01957403309643269
v -0.03999463096261024 0.01206210535019636 -0.01389065757393837
v -0.03999463096261024 0.01206878013908863 -0.01474822871387005
v -0.03999463096261024 0.01211704965680838 -0.02007486484944820
v -0.03999463096261024 0.01224495563656092 -0.01293249614536762
v -0.03999463096261024 0.01230654306709766 -0.02084567397832870
v -0.03999463096261024 0.01244384422898293 -0.01428228709846735
v -0.03999463096261024 0.01249242760241032 -0.02052473835647106
v -0.03999463096261024 0.01278055831789970 -0.01211724430322647
v -0.03999463096261024 0.01285476889461279 -0.02165248990058899
v -0.03999463096261024 0.01341202389448881 -0.01362441387027502
v -0.03999463096261024 0.01347073074430227 -0.02116746269166470
v -0.03999463096261024 0.01358737424015999 -0.01156901754438877
v -0.03999463096261024 0.01367002073675394 -0.02218809351325035
v -0.03999463096261024 0.01454257313162088 -0.01137127634137869
v -0.03999463096261024 0.01455826312303543 -0.01338712498545647
v -0.03999463096261024 0.01462052389979362 -0.02138688229024410
v -0.03999463096261024 0.01462818216532469 -0.02237094379961491
v -0.03999462723731995 0.06211681291460991 -0.01100101601332426
v -0.03999462723731995 0.06213250383734703 -0.01301686372607946
v -0.03999462723731995 0.06219476461410522 -0.02101662196218967
v -0.03999462723731995 0.06220242008566856 -0.02200068160891533
v -0.03999462723731995 0.06307497620582581 -0.01118386536836624
v -0.03999462723731995 0.06316304206848145 -0.02180063910782337
v -0.03999462723731995 0.06328229606151581 -0.01323628332465887
v -0.03999462723731995 0.06334099918603897 -0.02077933214604855
v -0.03999462723731995 0.06389022618532181 -0.01171946804970503
v -0.03999462723731995 0.06397268176078796 -0.02124629914760590
v -0.03999462723731995 0.06426059454679489 -0.01387900765985250
v -0.03999462723731995 0.06430917978286743 -0.02012145891785622
v -0.03999462723731995 0.06443845480680466 -0.01252628490328789
v -0.03999462723731995 0.06450662016868591 -0.02042305842041969
v -0.03999462723731995 0.06463619321584702 -0.01348148286342621
v -0.03999462723731995 0.06464286893606186 -0.01433905400335789
v -0.03999462723731995 0.06467751413583755 -0.01966579630970955
v -0.03899463266134262 0.02555792964994907 -0.01330151688307524
v -0.03899463266134262 0.02562018856406212 -0.02130127511918545
v -0.03899462521076202 0.06213250383734703 -0.01301686372607946
v -0.03899462521076202 0.06219476088881493 -0.02101662196218967
v -0.03899462521076202 0.06328229606151581 -0.01323628332465887
v -0.03899462521076202 0.06334099918603897 -0.02077933214604855
v -0.03899462521076202 0.06426059454679489 -0.01387900765985250
v -0.03899462521076202 0.06430917978286743 -0.02012145891785622
v -0.03899462521076202 0.06491847336292267 -0.01484718639403582
v -0.03899462521076202 0.06495190411806107 -0.01914315670728683
v -0.03899462521076202 0.06515575945377350 -0.01599342562258244
v -0.03899462521076202 0.06517132371664047 -0.01799336448311806
v -0.03897541761398315 0.02581512369215488 -0.02128054201602936
v -0.03896055743098259 0.02581700496375561 -0.01333357486873865
v -0.03891851007938385 0.02600226923823357 -0.02122217789292336
v -0.03886065632104874 0.02605895698070526 -0.01343159563839436
v -0.03870173916220665 0.02632499486207962 -0.02100288681685925
v -0.03849463164806366 0.02642781846225262 -0.01379476208239794
v -0.03849463164806366 0.02648229710757732 -0.02079454995691776
v -0.03849463164806366 0.02653923630714417 -0.02067678608000278
v -0.03849463164806366 0.02656568214297295 -0.01429370325058699
v -0.03849463164806366 0.02661237679421902 -0.02029352076351643
v -0.03849462419748306 0.06213639304041862 -0.01351684890687466
v -0.03849462419748306 0.06219087168574333 -0.02051663585007191
v -0.03849462419748306 0.06309455633163452 -0.01369969826191664
v -0.03849462419748306 0.06314606964588165 -0.02031889557838440
v -0.03849462419748306 0.06390980631113052 -0.01423530094325542
v -0.03849462419748306 0.06395288556814194 -0.01977066695690155
v -0.03849462419748306 0.06445803493261337 -0.01504211779683828
v -0.03849462419748306 0.06448848545551300 -0.01895541511476040
v -0.03849462419748306 0.06465577334165573 -0.01599731668829918
v -0.03849462419748306 0.06467133760452271 -0.01799725554883480
v -0.03799463436007500 0.01555823162198067 -0.01337934192270041
v -0.03799463063478470 0.01605926081538200 -0.01350942160934210
v -0.03799463063478470 0.01642812229692936 -0.01387258712202311
v -0.03799463063478470 0.01656598411500454 -0.01437152922153473
v -0.03799463063478470 0.01659711450338364 -0.01837140880525112
v -0.03799463063478470 0.01667621172964573 -0.01875348761677742
v -0.03799463063478470 0.01689550280570984 -0.01907621510326862
v -0.03799463063478470 0.01722160167992115 -0.01929045654833317
v -0.03799463063478470 0.01760486513376236 -0.01936359517276287
v -0.03799463063478470 0.02060477621853352 -0.01934024877846241
v -0.03799463063478470 0.02098685503005981 -0.01926115155220032
v -0.03799463063478470 0.02130958251655102 -0.01904186047613621
v -0.03799463063478470 0.02152382396161556 -0.01871575973927975
v -0.03799463063478470 0.02156583219766617 -0.01433261670172215
v -0.03799463063478470 0.02159696258604527 -0.01833249628543854
v -0.03799463063478470 0.02163897268474102 -0.01394935231655836
v -0.03799463063478470 0.02185321412980556 -0.01362325157970190
v -0.03799463063478470 0.02217594161629677 -0.01340396050363779
v -0.03799463063478470 0.02255802042782307 -0.01332486420869827
v -0.03679463267326355 0.01158170029520988 -0.01641038060188293
v -0.03679463267326355 0.01159726548939943 -0.01841032132506371
v -0.03679463267326355 0.01180111989378929 -0.01526058930903673
v -0.03679463267326355 0.01183455530554056 -0.01955655962228775
v -0.03679463267326355 0.01244384422898293 -0.01428228709846735
v -0.03679463267326355 0.01249242760241032 -0.02052473835647106
v -0.03679463267326355 0.01341202389448881 -0.01362441387027502
v -0.03679463267326355 0.01347073074430227 -0.02116746269166470
v -0.03679463267326355 0.01455826312303543 -0.01338712498545647
v -0.03679463267326355 0.01462052296847105 -0.02138688229024410
v -0.03679463267326355 0.01555823162198067 -0.01337934192270041
v -0.03679463267326355 0.01605926081538200 -0.01350942160934210
v -0.03679463267326355 0.01642812229692936 -0.01387258712202311
v -0.03679463267326355 0.01656598411500454 -0.01437152922153473
v -0.03679463267326355 0.01659711450338364 -0.01837140880525112
v -0.03679463267326355 0.01667347736656666 -0.01874696835875511
v -0.03679463267326355 0.01689215190708637 -0.01907290145754814
v -0.03679463267326355 0.01721942052245140 -0.01928956806659698
v -0.03679463267326355 0.01760486513376236 -0.01936359517276287
v -0.03679463267326355 0.02060477621853352 -0.01934024877846241
v -0.03679463267326355 0.02098685503005981 -0.01926115155220032
v -0.03679463267326355 0.02130958251655102 -0.01904186047613621
v -0.03679463267326355 0.02152382396161556 -0.01871575973927975
v -0.03679463267326355 0.02156583219766617 -0.01433261670172215
v -0.03679463267326355 0.02159696258604527 -0.01833249628543854
v -0.03679463267326355 0.02163897268474102 -0.01394935231655836
v -0.03679463267326355 0.02185321412980556 -0.01362325157970190
v -0.03679463267326355 0.02217594161629677 -0.01340396050363779
v -0.03679463267326355 0.02255801856517792 -0.01332486420869827
v -0.03679463267326355 0.02555792778730392 -0.01330151688307524
v -0.03679463267326355 0.02562018856406212 -0.02130127511918545
v -0.03679463267326355 0.02594119310379028 -0.01337465643882751
v -0.03679463267326355 0.02600226923823357 -0.02122217789292336
v -0.03679463267326355 0.02605895698070526 -0.01343159563839436
v -0.03679463267326355 0.02626729384064674 -0.01358889788389206
v -0.03679463267326355 0.02632499486207962 -0.02100288681685925
v -0.03679463267326355 0.02642781846225262 -0.01379476208239794
v -0.03679463267326355 0.02648658491671085 -0.01391162443906069
v -0.03679463267326355 0.02653923630714417 -0.02067678608000278
v -0.03679463267326355 0.02656568028032780 -0.01429370325058699
v -0.03679463267326355 0.02661237679421902 -0.02029352076351643
v -0.03676963225007057 0.01283944584429264 -0.01740062236785889
v -0.03676963225007057 0.01296893972903490 -0.01794501766562462
v -0.03676963225007057 0.01300204545259476 -0.01677433960139751
v -0.03676963225007057 0.01332298200577497 -0.01837836205959320
v -0.03676963225007057 0.01345600094646215 -0.01631325855851173
v -0.03676963225007057 0.01383061986416578 -0.01861381158232689
v -0.03676963225007057 0.01407967880368233 -0.01614093221724033
v -0.03676963225007057 0.01439012028276920 -0.01860418356955051
v -0.03676963225007057 0.01470596436411142 -0.01630353182554245
v -0.03676963225007057 0.01488935668021441 -0.01835140585899353
v -0.03676963225007057 0.01516704261302948 -0.01675748825073242
v -0.03676963225007057 0.01522827800363302 -0.01790613681077957
v -0.03676963225007057 0.01533937081694603 -0.01738116517663002
v -0.03676963225007057 0.02283914200961590 -0.01732279732823372
v -0.03676963225007057 0.02296863682568073 -0.01786719076335430
v -0.03676963225007057 0.02300174161791801 -0.01669651269912720
v -0.03676963225007057 0.02332267910242081 -0.01830053701996803
v -0.03676963225007057 0.02345569804310799 -0.01623543351888657
v -0.03676963225007057 0.02383031696081161 -0.01853598654270172
v -0.03676963225007057 0.02407937683165073 -0.01606310717761517
v -0.03676963225007057 0.02438981831073761 -0.01852635852992535
v -0.03676963225007057 0.02470565959811211 -0.01622570678591728
v -0.03676963225007057 0.02488905377686024 -0.01827358081936836
v -0.03676963225007057 0.02516673877835274 -0.01667966321110725
v -0.03676963225007057 0.02522797510027885 -0.01782830990850925
v -0.03676963225007057 0.02533906698226929 -0.01730334013700485
v -0.03649463504552841 0.02060711011290550 -0.01964024081826210
v -0.03649463132023811 0.01188169047236443 -0.01640804670751095
v -0.03649463132023811 0.01189725566655397 -0.01840798556804657
v -0.03649463132023811 0.01207916904240847 -0.01537323277443647
v -0.03649463132023811 0.01211081631481647 -0.01943960040807724
v -0.03649463132023811 0.01256445422768593 -0.01740276254713535
v -0.03649463132023811 0.01265762094408274 -0.01449276134371758
v -0.03649463132023811 0.01270290277898312 -0.02031096257269382
v -0.03649463132023811 0.01272243633866310 -0.01806692406535149
v -0.03649463132023811 0.01276282407343388 -0.01663869619369507
v -0.03649463132023811 0.01315436698496342 -0.01859560422599316
v -0.03649463132023811 0.01331665180623531 -0.01607617922127247
v -0.03649463132023811 0.01352898310869932 -0.01390067581087351
v -0.03649463132023811 0.01358337327837944 -0.02088941447436810
v -0.03649463132023811 0.01377368718385696 -0.01888285577297211
v -0.03649463132023811 0.01407753862440586 -0.01586594060063362
v -0.03649463132023811 0.01445627771317959 -0.01887110807001591
v -0.03649463132023811 0.01456059701740742 -0.01368711516261101
v -0.03649463132023811 0.01461818721145391 -0.02108689211308956
v -0.03649463132023811 0.01484160497784615 -0.01606431044638157
v -0.03649463132023811 0.01506534498184919 -0.01856271736323833
v -0.03649463132023811 0.01540412195026875 -0.01661814004182816
v -0.03649463132023811 0.01547882892191410 -0.01801948994398117
v -0.03649463132023811 0.01556056737899780 -0.01367933209985495
v -0.03649463132023811 0.01561436243355274 -0.01737902499735355
v -0.03649463132023811 0.01591128669679165 -0.01377038843929768
v -0.03649463132023811 0.01616949029266834 -0.01402460411190987
v -0.03649463132023811 0.01626599393785000 -0.01437386404722929
v -0.03649463132023811 0.01629712432622910 -0.01837374456226826
v -0.03649463132023811 0.01639639586210251 -0.01886197179555893
v -0.03649463132023811 0.01668067090213299 -0.01928568258881569
v -0.03649463132023811 0.01710612140595913 -0.01956735178828239
v -0.03649463132023811 0.01760720089077950 -0.01966358721256256
v -0.03649463132023811 0.02110381424427032 -0.01953741349279881
v -0.03649463132023811 0.02152335830032825 -0.01925233565270901
v -0.03649463132023811 0.02180187217891216 -0.01882840506732464
v -0.03649463132023811 0.02186582423746586 -0.01433028187602758
v -0.03649463132023811 0.02189695462584496 -0.01833016052842140
v -0.03649463132023811 0.02191702090203762 -0.01406199671328068
v -0.03649463132023811 0.02206698991358280 -0.01383372582495213
v -0.03649463132023811 0.02229289896786213 -0.01368022244423628
v -0.03649463132023811 0.02256035432219505 -0.01362485438585281
v -0.03649463132023811 0.02256415039300919 -0.01732493750751019
v -0.03649463132023811 0.02272213436663151 -0.01798909902572632
v -0.03649463132023811 0.02276252210140228 -0.01656087115406990
v -0.03649463132023811 0.02315406501293182 -0.01851777918636799
v -0.03649463132023811 0.02331634983420372 -0.01599835418164730
v -0.03649463132023811 0.02377338334918022 -0.01880502887070179
v -0.03649463132023811 0.02407723665237427 -0.01578811556100845
v -0.03649463132023811 0.02445597387850285 -0.01879328303039074
v -0.03649463132023811 0.02484130300581455 -0.01598648540675640
v -0.03649463132023811 0.02506504207849503 -0.01848489232361317
v -0.03649463132023811 0.02540381811559200 -0.01654031313955784
v -0.03649463132023811 0.02547852694988251 -0.01794166304171085
v -0.03649463132023811 0.02556026354432106 -0.01360150706022978
v -0.03649463132023811 0.02561405859887600 -0.01730119995772839
v -0.03649463132023811 0.02561785466969013 -0.02100128307938576
v -0.03649463132023811 0.02582854777574539 -0.01365270558744669
v -0.03649463132023811 0.02588531002402306 -0.02094591408967972
v -0.03649463132023811 0.02605681866407394 -0.01380267366766930
v -0.03649463132023811 0.02611121907830238 -0.02079241350293159
v -0.03649463132023811 0.02621032297611237 -0.01402858272194862
v -0.03649463132023811 0.02626118808984756 -0.02056414261460304
v -0.03649463132023811 0.02626569010317326 -0.01429603807628155
v -0.03649463132023811 0.02631238661706448 -0.02029585652053356
f 567 633 635
f 277 273 278
f 201 437 236
f 454 132 456
f 537 539 688
f 595 574 454
f 595 454 456
f 575 455 453
f 523 463 525
f 467 463 280
f 467 525 463
f 466 280 279
f 262 263 114
f 262 236 437
f 262 437 263
f 457 455 501
f 116 109 114
f 116 120 135
f 116 134 109
f 116 135 134
f 124 135 120
f 650 645 574
f 650 574 595
f 650 595 688
f 436 437 201
f 267 273 433
f 267 125 273
f 144 435 436
f 275 446 278
f 275 448 446
f 18 56 79
f 18 79 17
f 18 1 29
f 55 201 56
f 55 18 29
f 55 56 18
f 110 114 109
f 110 262 114
f 83 79 56
f 83 236 262
f 83 262 110
f 450 568 448
f 450 448 269
f 450 269 266
f 517 595 456
f 517 539 537
f 517 537 688
f 517 688 595
f 434 267 433
f 434 141 267
f 447 434 433
f 497 501 455
f 497 455 686
f 594 686 455
f 545 523 525
f 458 456 134
f 458 134 135
f 461 463 523
f 133 456 132
f 133 134 456
f 133 132 8
f 133 8 104
f 133 109 134
f 133 104 109
f 123 124 120
f 118 114 263
f 118 263 264
f 118 264 123
f 118 116 114
f 118 120 116
f 118 123 120
f 439 440 265
f 439 265 264
f 276 441 279
f 276 440 441
f 276 272 440
f 276 279 280
f 270 265 440
f 270 440 272
f 270 272 276
f 268 461 460
f 566 568 636
f 566 278 446
f 566 277 278
f 171 170 436
f 171 436 201
f 171 29 170
f 142 434 435
f 142 141 434
f 145 436 170
f 145 144 436
f 145 170 29
f 431 433 273
f 431 273 277
f 431 447 433
f 431 443 447
f 271 269 448
f 271 448 275
f 271 275 278
f 271 278 273
f 271 273 125
f 271 125 266
f 271 266 269
f 2 8 132
f 108 79 83
f 108 109 79
f 108 83 110
f 108 110 109
f 131 132 454
f 131 2 132
f 131 130 115
f 117 115 130
f 117 113 115
f 117 119 113
f 570 568 450
f 570 636 568
f 129 450 266
f 129 266 125
f 129 125 130
f 573 575 453
f 573 453 571
f 449 434 447
f 536 497 686
f 536 686 538
f 543 523 545
f 543 541 523
f 521 458 460
f 521 460 461
f 521 541 539
f 521 461 523
f 521 523 541
f 128 264 265
f 128 123 264
f 128 265 270
f 128 270 276
f 128 124 123
f 128 276 124
f 438 263 437
f 438 264 263
f 438 439 264
f 274 276 280
f 274 124 276
f 274 280 463
f 274 463 461
f 274 461 268
f 126 135 124
f 565 633 567
f 565 566 633
f 565 443 431
f 565 277 566
f 565 431 277
f 634 633 566
f 634 566 636
f 143 435 144
f 143 142 435
f 143 119 142
f 143 144 113
f 143 113 119
f 121 125 267
f 121 142 119
f 71 17 79
f 71 70 17
f 71 79 109
f 71 109 70
f 69 8 17
f 69 17 70
f 69 104 8
f 69 109 104
f 69 70 109
f 112 29 1
f 112 115 113
f 112 145 29
f 112 113 144
f 112 144 145
f 111 131 115
f 111 2 131
f 111 115 112
f 111 1 2
f 111 112 1
f 122 130 125
f 122 117 130
f 122 119 117
f 122 125 121
f 122 121 119
f 572 645 570
f 572 574 645
f 639 570 645
f 639 636 570
f 452 129 130
f 452 450 129
f 452 131 454
f 452 130 131
f 452 570 450
f 452 572 570
f 649 573 571
f 649 655 575
f 649 575 573
f 569 567 635
f 451 571 453
f 451 449 569
f 451 569 571
f 451 453 436
f 451 436 435
f 451 435 434
f 451 434 449
f 593 455 575
f 593 594 455
f 522 462 459
f 522 540 542
f 522 464 462
f 692 539 541
f 519 521 539
f 519 458 521
f 519 539 517
f 519 517 456
f 519 456 458
f 136 124 274
f 136 274 268
f 136 126 124
f 136 135 126
f 136 458 135
f 136 460 458
f 136 268 460
f 127 267 141
f 127 121 267
f 127 141 142
f 127 142 121
f 644 649 571
f 505 540 459
f 505 459 457
f 505 457 501
f 520 459 540
f 520 522 459
f 520 540 522
f 524 464 522
f 690 688 539
f 690 539 692
f 694 541 543
f 694 692 541
f 694 545 696
f 694 543 545
f 691 540 538
f 638 569 635
f 638 571 569
f 638 644 571
f 544 522 542
f 544 524 522
f 544 542 695
f 544 695 696
f 544 696 545
f 689 538 686
f 689 691 538
f 693 542 540
f 693 540 691
f 693 695 542
f 466 467 280
f 466 525 467
f 462 464 441
f 462 441 440
f 436 453 455
f 436 455 437
f 83 56 201
f 83 201 236
f 439 462 440
f 439 459 462
f 566 448 568
f 566 446 448
f 171 201 55
f 171 55 29
f 2 1 18
f 2 17 8
f 2 18 17
f 536 538 501
f 536 501 497
f 438 437 455
f 438 455 457
f 438 459 439
f 438 457 459
f 565 447 443
f 565 567 447
f 452 574 572
f 452 454 574
f 569 447 567
f 569 449 447
f 593 655 673
f 593 575 655
f 593 673 686
f 593 686 594
f 505 501 538
f 505 538 540
f 524 441 464
f 524 279 441
f 524 466 279
f 524 525 466
f 544 525 524
f 544 545 525
f 693 673 655
f 693 635 633
f 693 650 688
f 693 639 645
f 693 694 696
f 693 645 650
f 693 633 634
f 693 686 673
f 693 638 635
f 693 634 636
f 693 636 639
f 693 655 649
f 693 688 690
f 693 696 695
f 693 649 644
f 693 690 692
f 693 692 694
f 693 689 686
f 693 644 638
f 693 691 689

