# MANUAL_CAD_FROM_VIDEO ESTIMATED_METRE FUNCTIONAL_MODEL
v -0.0175678464456 -0.0101893509385 0
v 0.0175678464456 -0.0101893509385 0
v 0.0175678464456 0.0101893509385 0
v -0.0175678464456 0.0101893509385 0
v -0.0175678464456 -0.0101893509385 0.0228382003793
v 0.0175678464456 -0.0101893509385 0.0228382003793
v 0.0175678464456 0.0101893509385 0.0228382003793
v -0.0175678464456 0.0101893509385 0.0228382003793
f 1 3 2
f 1 4 3
f 5 6 7
f 5 7 8
f 1 2 6
f 1 6 5
f 2 3 7
f 2 7 6
f 3 4 8
f 3 8 7
f 4 1 5
f 4 5 8
