# MANUAL_CAD_FROM_VIDEO ESTIMATED_METRE FUNCTIONAL_MODEL
v -0.112944762405 -0.0815894007513 0
v 0.112944762405 -0.0815894007513 0
v 0.112944762405 0.0815894007513 0
v -0.112944762405 0.0815894007513 0
v -0.112944762405 -0.0815894007513 0.003
v 0.112944762405 -0.0815894007513 0.003
v 0.112944762405 0.0815894007513 0.003
v -0.112944762405 0.0815894007513 0.003
v -0.112944762405 0.0785894007513 0
v 0.112944762405 0.0785894007513 0
v 0.112944762405 0.0815894007513 0
v -0.112944762405 0.0815894007513 0
v -0.112944762405 0.0785894007513 0.035
v 0.112944762405 0.0785894007513 0.035
v 0.112944762405 0.0815894007513 0.035
v -0.112944762405 0.0815894007513 0.035
v -0.112944762405 -0.0815894007513 0
v 0.112944762405 -0.0815894007513 0
v 0.112944762405 -0.0785894007513 0
v -0.112944762405 -0.0785894007513 0
v -0.112944762405 -0.0815894007513 0.035
v 0.112944762405 -0.0815894007513 0.035
v 0.112944762405 -0.0785894007513 0.035
v -0.112944762405 -0.0785894007513 0.035
v -0.112944762405 -0.0815894007513 0
v -0.109944762405 -0.0815894007513 0
v -0.109944762405 0.0815894007513 0
v -0.112944762405 0.0815894007513 0
v -0.112944762405 -0.0815894007513 0.035
v -0.109944762405 -0.0815894007513 0.035
v -0.109944762405 0.0815894007513 0.035
v -0.112944762405 0.0815894007513 0.035
v -0.203630487016 -0.175772356514 0.004
v -0.0987093492794 -0.0825968323004 0.004
v -0.109333582799 -0.070633318514 0.004
v -0.214254720536 -0.163808842727 0.004
v -0.203630487016 -0.175772356514 0.016
v -0.0987093492794 -0.0825968323004 0.016
v -0.109333582799 -0.070633318514 0.016
v -0.214254720536 -0.163808842727 0.016
f 1 3 2
f 1 4 3
f 5 6 7
f 5 7 8
f 1 2 6
f 1 6 5
f 2 3 7
f 2 7 6
f 3 4 8
f 3 8 7
f 4 1 5
f 4 5 8
f 9 11 10
f 9 12 11
f 13 14 15
f 13 15 16
f 9 10 14
f 9 14 13
f 10 11 15
f 10 15 14
f 11 12 16
f 11 16 15
f 12 9 13
f 12 13 16
f 17 19 18
f 17 20 19
f 21 22 23
f 21 23 24
f 17 18 22
f 17 22 21
f 18 19 23
f 18 23 22
f 19 20 24
f 19 24 23
f 20 17 21
f 20 21 24
f 25 27 26
f 25 28 27
f 29 30 31
f 29 31 32
f 25 26 30
f 25 30 29
f 26 27 31
f 26 31 30
f 27 28 32
f 27 32 31
f 28 25 29
f 28 29 32
f 33 35 34
f 33 36 35
f 37 38 39
f 37 39 40
f 33 34 38
f 33 38 37
f 34 35 39
f 34 39 38
f 35 36 40
f 35 40 39
f 36 33 37
f 36 37 40
